<?xml version="1.0" encoding="UTF-8"?>
<!DOCTYPE svg PUBLIC "-//W3C//DTD SVG 1.1//EN" "http://www.w3.org/Graphics/SVG/1.1/DTD/svg11.dtd">
<!-- Creator: CorelDRAW (Versión de evaluación) -->
<svg xmlns="http://www.w3.org/2000/svg" xml:space="preserve" width="300mm" height="200mm" version="1.1" style="shape-rendering:geometricPrecision; text-rendering:geometricPrecision; image-rendering:optimizeQuality; fill-rule:evenodd; clip-rule:evenodd"
viewBox="0 0 30000 20000"
 xmlns:xlink="http://www.w3.org/1999/xlink"
 xmlns:xodm="http://www.corel.com/coreldraw/odm/2003">
 <defs>
  <style type="text/css">
   <![CDATA[
    .fil1 {fill:none}
    .fil168 {fill:#FEFEFE;fill-rule:nonzero}
    .fil17 {fill:url(#id1)}
    .fil22 {fill:url(#id2)}
    .fil59 {fill:url(#id3)}
    .fil129 {fill:url(#id4)}
    .fil155 {fill:url(#id5)}
    .fil125 {fill:url(#id6)}
    .fil63 {fill:url(#id7)}
    .fil149 {fill:url(#id8)}
    .fil60 {fill:url(#id9)}
    .fil143 {fill:url(#id10)}
    .fil65 {fill:url(#id11)}
    .fil128 {fill:url(#id12)}
    .fil99 {fill:url(#id13)}
    .fil140 {fill:url(#id14)}
    .fil126 {fill:url(#id15)}
    .fil89 {fill:url(#id16)}
    .fil119 {fill:url(#id17)}
    .fil98 {fill:url(#id18)}
    .fil33 {fill:url(#id19)}
    .fil14 {fill:url(#id20)}
    .fil144 {fill:url(#id21)}
    .fil110 {fill:url(#id22)}
    .fil80 {fill:url(#id23)}
    .fil108 {fill:url(#id24)}
    .fil139 {fill:url(#id25)}
    .fil3 {fill:url(#id26)}
    .fil30 {fill:url(#id27)}
    .fil118 {fill:url(#id28)}
    .fil7 {fill:url(#id29)}
    .fil11 {fill:url(#id30)}
    .fil132 {fill:url(#id31)}
    .fil74 {fill:url(#id32)}
    .fil24 {fill:url(#id33)}
    .fil141 {fill:url(#id34)}
    .fil23 {fill:url(#id35)}
    .fil106 {fill:url(#id36)}
    .fil123 {fill:url(#id37)}
    .fil113 {fill:url(#id38)}
    .fil115 {fill:url(#id39)}
    .fil107 {fill:url(#id40)}
    .fil15 {fill:url(#id41)}
    .fil73 {fill:url(#id42)}
    .fil47 {fill:url(#id43)}
    .fil86 {fill:url(#id44)}
    .fil121 {fill:url(#id45)}
    .fil68 {fill:url(#id46)}
    .fil13 {fill:url(#id47)}
    .fil49 {fill:url(#id48)}
    .fil36 {fill:url(#id49)}
    .fil97 {fill:url(#id50)}
    .fil29 {fill:url(#id51)}
    .fil18 {fill:url(#id52)}
    .fil4 {fill:url(#id53)}
    .fil137 {fill:url(#id54)}
    .fil135 {fill:url(#id55)}
    .fil53 {fill:url(#id56)}
    .fil52 {fill:url(#id57)}
    .fil32 {fill:url(#id58)}
    .fil101 {fill:url(#id59)}
    .fil48 {fill:url(#id60)}
    .fil56 {fill:url(#id61)}
    .fil12 {fill:url(#id62)}
    .fil61 {fill:url(#id63)}
    .fil95 {fill:url(#id64)}
    .fil94 {fill:url(#id65)}
    .fil39 {fill:url(#id66)}
    .fil91 {fill:url(#id67)}
    .fil134 {fill:url(#id68)}
    .fil88 {fill:url(#id69)}
    .fil20 {fill:url(#id70)}
    .fil100 {fill:url(#id71)}
    .fil37 {fill:url(#id72)}
    .fil138 {fill:url(#id73)}
    .fil142 {fill:url(#id74)}
    .fil102 {fill:url(#id75)}
    .fil5 {fill:url(#id76)}
    .fil84 {fill:url(#id77)}
    .fil41 {fill:url(#id78)}
    .fil40 {fill:url(#id79)}
    .fil147 {fill:url(#id80)}
    .fil8 {fill:url(#id81)}
    .fil38 {fill:url(#id82)}
    .fil10 {fill:url(#id83)}
    .fil46 {fill:url(#id84)}
    .fil43 {fill:url(#id85)}
    .fil161 {fill:url(#id86)}
    .fil124 {fill:url(#id87)}
    .fil35 {fill:url(#id88)}
    .fil90 {fill:url(#id89)}
    .fil55 {fill:url(#id90)}
    .fil146 {fill:url(#id91)}
    .fil131 {fill:url(#id92)}
    .fil133 {fill:url(#id93)}
    .fil64 {fill:url(#id94)}
    .fil83 {fill:url(#id95)}
    .fil76 {fill:url(#id96)}
    .fil96 {fill:url(#id97)}
    .fil150 {fill:url(#id98)}
    .fil87 {fill:url(#id99)}
    .fil158 {fill:url(#id100)}
    .fil160 {fill:url(#id101)}
    .fil57 {fill:url(#id102)}
    .fil0 {fill:url(#id103)}
    .fil163 {fill:url(#id104)}
    .fil31 {fill:url(#id105)}
    .fil9 {fill:url(#id106)}
    .fil152 {fill:url(#id107)}
    .fil116 {fill:url(#id108)}
    .fil159 {fill:url(#id109)}
    .fil50 {fill:url(#id110)}
    .fil44 {fill:url(#id111)}
    .fil71 {fill:url(#id112)}
    .fil136 {fill:url(#id113)}
    .fil16 {fill:url(#id114)}
    .fil114 {fill:url(#id115)}
    .fil93 {fill:url(#id116)}
    .fil42 {fill:url(#id117)}
    .fil117 {fill:url(#id118)}
    .fil45 {fill:url(#id119)}
    .fil54 {fill:url(#id120)}
    .fil26 {fill:url(#id121)}
    .fil157 {fill:url(#id122)}
    .fil151 {fill:url(#id123)}
    .fil109 {fill:url(#id124)}
    .fil34 {fill:url(#id125)}
    .fil78 {fill:url(#id126)}
    .fil51 {fill:url(#id127)}
    .fil92 {fill:url(#id128)}
    .fil130 {fill:url(#id129)}
    .fil111 {fill:url(#id130)}
    .fil127 {fill:url(#id131)}
    .fil69 {fill:url(#id132)}
    .fil25 {fill:url(#id133)}
    .fil27 {fill:url(#id134)}
    .fil58 {fill:url(#id135)}
    .fil122 {fill:url(#id136)}
    .fil19 {fill:url(#id137)}
    .fil154 {fill:url(#id138)}
    .fil153 {fill:url(#id139)}
    .fil77 {fill:url(#id140)}
    .fil145 {fill:url(#id141)}
    .fil112 {fill:url(#id142)}
    .fil81 {fill:url(#id143)}
    .fil28 {fill:url(#id144)}
    .fil79 {fill:url(#id145)}
    .fil85 {fill:url(#id146)}
    .fil67 {fill:url(#id147)}
    .fil103 {fill:url(#id148)}
    .fil148 {fill:url(#id149)}
    .fil70 {fill:url(#id150)}
    .fil62 {fill:url(#id151)}
    .fil104 {fill:url(#id152)}
    .fil82 {fill:url(#id153)}
    .fil6 {fill:url(#id154)}
    .fil105 {fill:url(#id155)}
    .fil120 {fill:url(#id156)}
    .fil2 {fill:url(#id157)}
    .fil165 {fill:url(#id158)}
    .fil166 {fill:url(#id159)}
    .fil75 {fill:url(#id160)}
    .fil162 {fill:url(#id161)}
    .fil156 {fill:url(#id162)}
    .fil167 {fill:url(#id163)}
    .fil164 {fill:url(#id164)}
    .fil66 {fill:url(#id165)}
    .fil72 {fill:url(#id166)}
    .fil21 {fill:url(#id167)}
   ]]>
  </style>
    <clipPath id="id0">
     <path d="M15223.66 9445.56l2042.36 0 0 2424.8c-294.4,215.55 -607.19,371.94 -939.69,469.19 -332.51,97.25 -680.79,145.88 -1043.53,145.88 -473.13,0 -902.89,-74.91 -1290.59,-223.42 -387.7,-148.51 -720.22,-353.53 -996.21,-615.07 -275.99,-261.54 -488.9,-571.7 -638.72,-930.49 -149.83,-358.8 -224.74,-747.82 -224.74,-1168.37 0,-428.45 70.97,-822.73 212.91,-1181.52 141.94,-358.79 345.64,-667.65 609.82,-927.87 264.16,-260.22 583.52,-462.62 958.09,-607.18 374.55,-144.57 792.49,-216.85 1255.11,-216.85 239.19,0 463.93,19.71 674.21,59.14 210.28,39.43 404.79,93.31 582.21,161.65 177.43,68.34 339.09,149.83 486.28,244.45 147.2,94.63 278.62,197.14 394.28,307.54l-386.39 587.47c-60.46,92 -138,148.51 -233.94,169.54 -95.94,21.03 -199.77,-2.63 -310.17,-70.97 -105.14,-63.08 -203.7,-118.28 -297.02,-164.28 -93.31,-46 -189.25,-82.8 -286.51,-111.71 -97.25,-28.92 -199.76,-49.94 -307.54,-63.09 -107.76,-13.14 -228.67,-19.71 -362.72,-19.71 -249.71,0 -474.45,43.37 -674.22,131.43 -199.76,88.05 -369.3,212.9 -509.93,373.24 -140.62,160.34 -249.7,352.22 -325.94,576.96 -76.22,224.74 -114.34,475.77 -114.34,751.76 0,304.9 42.06,575.64 126.17,812.21 84.11,236.56 203.71,436.32 357.48,599.29 153.77,162.97 337.77,286.52 551.99,371.94 214.22,85.43 450.79,128.8 711.01,128.8 160.34,0 306.22,-15.78 436.33,-47.31 130.11,-31.55 256.28,-73.61 379.82,-126.18l0 -871.35 -567.76 0c-84.11,0 -149.83,-22.34 -197.14,-67.02 -47.31,-44.69 -70.97,-101.2 -70.97,-169.55l0 -733.35z"/>
    </clipPath>
  <linearGradient id="id1" gradientUnits="userSpaceOnUse" x1="15648.52" y1="7835.02" x2="15435.24" y2="9042.37">
   <stop offset="0" style="stop-opacity:1; stop-color:#A15036"/>
   <stop offset="1" style="stop-opacity:1; stop-color:#C95C39"/>
  </linearGradient>
  <linearGradient id="id2" gradientUnits="userSpaceOnUse" xlink:href="#id1" x1="15149.91" y1="7726.8" x2="15084.57" y2="8976.67">
  </linearGradient>
  <linearGradient id="id3" gradientUnits="userSpaceOnUse" xlink:href="#id1" x1="16172.44" y1="12277.76" x2="16423.86" y2="13456.27">
  </linearGradient>
  <linearGradient id="id4" gradientUnits="userSpaceOnUse" xlink:href="#id1" x1="12310.13" y1="11008.68" x2="11716.48" y2="11468.08">
  </linearGradient>
  <linearGradient id="id5" gradientUnits="userSpaceOnUse" xlink:href="#id1" x1="12241.5" y1="9473.04" x2="11635.93" y2="9129.98">
  </linearGradient>
  <linearGradient id="id6" gradientUnits="userSpaceOnUse" xlink:href="#id1" x1="12415.19" y1="11214.44" x2="11841.38" y2="11794.87">
  </linearGradient>
  <linearGradient id="id7" gradientUnits="userSpaceOnUse" xlink:href="#id1" x1="15955.7" y1="12348.12" x2="16151.02" y2="13559.52">
  </linearGradient>
  <linearGradient id="id8" gradientUnits="userSpaceOnUse" xlink:href="#id1" x1="12160.26" y1="9821.48" x2="11547.5" y2="9662.99">
  </linearGradient>
  <linearGradient id="id9" gradientUnits="userSpaceOnUse" xlink:href="#id1" x1="16118.82" y1="12296.97" x2="16356.45" y2="13484.62">
  </linearGradient>
  <linearGradient id="id10" gradientUnits="userSpaceOnUse" xlink:href="#id1" x1="12133.4" y1="10203.65" x2="11524.51" y2="10218.44">
  </linearGradient>
  <linearGradient id="id11" gradientUnits="userSpaceOnUse" xlink:href="#id1" x1="15843.09" y1="12377.96" x2="16013.56" y2="13600.46">
  </linearGradient>
  <linearGradient id="id12" gradientUnits="userSpaceOnUse" xlink:href="#id1" x1="12334.31" y1="11060.89" x2="11744.98" y2="11551.84">
  </linearGradient>
  <linearGradient id="id13" gradientUnits="userSpaceOnUse" xlink:href="#id1" x1="13587.33" y1="12202.29" x2="13296.38" y2="13357.7">
  </linearGradient>
  <linearGradient id="id14" gradientUnits="userSpaceOnUse" xlink:href="#id1" x1="12145.59" y1="10390.03" x2="11533.38" y2="10496.35">
  </linearGradient>
  <linearGradient id="id15" gradientUnits="userSpaceOnUse" xlink:href="#id1" x1="12386.96" y1="11164.18" x2="11807.52" y2="11715.14">
  </linearGradient>
  <linearGradient id="id16" gradientUnits="userSpaceOnUse" xlink:href="#id1" x1="14252.22" y1="12411.41" x2="14111.25" y2="13648.57">
  </linearGradient>
  <linearGradient id="id17" gradientUnits="userSpaceOnUse" xlink:href="#id1" x1="12610.59" y1="11494.3" x2="12080.68" y2="12247.07">
  </linearGradient>
  <linearGradient id="id18" gradientUnits="userSpaceOnUse" xlink:href="#id1" x1="13649.3" y1="12228.51" x2="13372.02" y2="13395.12">
  </linearGradient>
  <linearGradient id="id19" gradientUnits="userSpaceOnUse" xlink:href="#id1" x1="14052.14" y1="7862.25" x2="14309.78" y2="9046.51">
  </linearGradient>
  <linearGradient id="id20" gradientUnits="userSpaceOnUse" xlink:href="#id1" x1="15902.72" y1="7947.03" x2="15609.89" y2="9102.64">
  </linearGradient>
  <linearGradient id="id21" gradientUnits="userSpaceOnUse" xlink:href="#id1" x1="12133.35" y1="10138.72" x2="11524.51" y2="10124.96">
  </linearGradient>
  <linearGradient id="id22" gradientUnits="userSpaceOnUse" xlink:href="#id1" x1="12989.23" y1="11855.59" x2="12553.28" y2="12829.54">
  </linearGradient>
  <linearGradient id="id23" gradientUnits="userSpaceOnUse" xlink:href="#id1" x1="14938.13" y1="12484.59" x2="14931.22" y2="13732.86">
  </linearGradient>
  <linearGradient id="id24" gradientUnits="userSpaceOnUse" xlink:href="#id1" x1="13086.95" y1="11926.64" x2="12675.78" y2="12941.41">
  </linearGradient>
  <linearGradient id="id25" gradientUnits="userSpaceOnUse" xlink:href="#id1" x1="12152.81" y1="10450.32" x2="11540.2" y2="10587.89">
  </linearGradient>
  <linearGradient id="id26" gradientUnits="userSpaceOnUse" xlink:href="#id1" x1="16331.76" y1="8227.33" x2="16849.74" y2="9032.3">
  </linearGradient>
  <linearGradient id="id27" gradientUnits="userSpaceOnUse" xlink:href="#id1" x1="14344.85" y1="7762.43" x2="14494.64" y2="8998.24">
  </linearGradient>
  <linearGradient id="id28" gradientUnits="userSpaceOnUse" xlink:href="#id1" x1="12647.54" y1="11537.69" x2="12126.53" y2="12317.71">
  </linearGradient>
  <linearGradient id="id29" gradientUnits="userSpaceOnUse" xlink:href="#id1" x1="16312.08" y1="8146.67" x2="16255.34" y2="9397.2">
  </linearGradient>
  <linearGradient id="id30" gradientUnits="userSpaceOnUse" xlink:href="#id1" x1="16144.66" y1="8080.87" x2="15804.41" y2="9200.73">
  </linearGradient>
  <linearGradient id="id31" gradientUnits="userSpaceOnUse" xlink:href="#id1" x1="12246.8" y1="10848.65" x2="11642.86" y2="11211.65">
  </linearGradient>
  <linearGradient id="id32" gradientUnits="userSpaceOnUse" xlink:href="#id1" x1="15315.82" y1="12467.71" x2="15379.44" y2="13715.84">
  </linearGradient>
  <linearGradient id="id33" gradientUnits="userSpaceOnUse" xlink:href="#id1" x1="14956.24" y1="7716" x2="14932.51" y2="8965.55">
  </linearGradient>
  <linearGradient id="id34" gradientUnits="userSpaceOnUse" xlink:href="#id1" x1="12139.94" y1="10328.88" x2="11528.5" y2="10404.21">
  </linearGradient>
  <linearGradient id="id35" gradientUnits="userSpaceOnUse" xlink:href="#id1" x1="15051.82" y1="7719.66" x2="15008.69" y2="8970.26">
  </linearGradient>
  <linearGradient id="id36" gradientUnits="userSpaceOnUse" xlink:href="#id1" x1="13189.4" y1="11994" x2="12804.08" y2="13046.36">
  </linearGradient>
  <linearGradient id="id37" gradientUnits="userSpaceOnUse" xlink:href="#id1" x1="12475.35" y1="11311.67" x2="11914.3" y2="11950.78">
  </linearGradient>
  <linearGradient id="id38" gradientUnits="userSpaceOnUse" xlink:href="#id1" x1="12851.5" y1="11742.32" x2="12380.9" y2="12649.05">
  </linearGradient>
  <linearGradient id="id39" gradientUnits="userSpaceOnUse" xlink:href="#id1" x1="12766.03" y1="11662.81" x2="12274.17" y2="12521.01">
  </linearGradient>
  <linearGradient id="id40" gradientUnits="userSpaceOnUse" xlink:href="#id1" x1="13137.53" y1="11960.7" x2="12739.26" y2="12994.83">
  </linearGradient>
  <linearGradient id="id41" gradientUnits="userSpaceOnUse" xlink:href="#id1" x1="15818.66" y1="7905.09" x2="15552.52" y2="9080.64">
  </linearGradient>
  <linearGradient id="id42" gradientUnits="userSpaceOnUse" xlink:href="#id1" x1="15375.89" y1="12461.45" x2="15451.27" y2="13708.43">
  </linearGradient>
  <linearGradient id="id43" gradientUnits="userSpaceOnUse" xlink:href="#id1" x1="13106.45" y1="8927.15" x2="13679.29" y2="9492.06">
  </linearGradient>
  <linearGradient id="id44" gradientUnits="userSpaceOnUse" xlink:href="#id1" x1="14470.98" y1="12448.47" x2="14376.34" y2="13695.41">
  </linearGradient>
  <linearGradient id="id45" gradientUnits="userSpaceOnUse" xlink:href="#id1" x1="12540.47" y1="11404.87" x2="11994.07" y2="12101.59">
  </linearGradient>
  <linearGradient id="id46" gradientUnits="userSpaceOnUse" xlink:href="#id1" x1="15670.58" y1="12416.19" x2="15805.4" y2="13651.13">
  </linearGradient>
  <linearGradient id="id47" gradientUnits="userSpaceOnUse" xlink:href="#id1" x1="15983.51" y1="7989.91" x2="15670.93" y2="9130.45">
  </linearGradient>
  <linearGradient id="id48" gradientUnits="userSpaceOnUse" xlink:href="#id1" x1="16690.79" y1="12022.95" x2="17066.52" y2="13083.01">
  </linearGradient>
  <linearGradient id="id49" gradientUnits="userSpaceOnUse" xlink:href="#id1" x1="13788.22" y1="8014.01" x2="14141.39" y2="9113.11">
  </linearGradient>
  <linearGradient id="id50" gradientUnits="userSpaceOnUse" xlink:href="#id1" x1="13712.63" y1="12253.84" x2="13448.89" y2="13430.78">
  </linearGradient>
  <linearGradient id="id51" gradientUnits="userSpaceOnUse" xlink:href="#id1" x1="14446.7" y1="7741.74" x2="14561.35" y2="8986.16">
  </linearGradient>
  <linearGradient id="id52" gradientUnits="userSpaceOnUse" xlink:href="#id1" x1="15558" y1="7803.51" x2="15370.43" y2="9026.59">
  </linearGradient>
  <linearGradient id="id53" gradientUnits="userSpaceOnUse" xlink:href="#id1" x1="16312.4" y1="8192.1" x2="16750.62" y2="9189.09">
  </linearGradient>
  <linearGradient id="id54" gradientUnits="userSpaceOnUse" xlink:href="#id1" x1="12171.94" y1="10568.09" x2="11559.71" y2="10769.38">
  </linearGradient>
  <linearGradient id="id55" gradientUnits="userSpaceOnUse" xlink:href="#id1" x1="12197.27" y1="10682.58" x2="11587.05" y2="10948.36">
  </linearGradient>
  <linearGradient id="id56" gradientUnits="userSpaceOnUse" xlink:href="#id1" x1="16487.11" y1="12138.93" x2="16816.43" y2="13251.53">
  </linearGradient>
  <linearGradient id="id57" gradientUnits="userSpaceOnUse" xlink:href="#id1" x1="16538.45" y1="12111.76" x2="16879.86" y2="13211.72">
  </linearGradient>
  <linearGradient id="id58" gradientUnits="userSpaceOnUse" xlink:href="#id1" x1="14147.37" y1="7822.56" x2="14369.05" y2="9028.51">
  </linearGradient>
  <linearGradient id="id59" gradientUnits="userSpaceOnUse" xlink:href="#id1" x1="13467.25" y1="12147.16" x2="13149.05" y2="13277.62">
  </linearGradient>
  <linearGradient id="id60" gradientUnits="userSpaceOnUse" xlink:href="#id1" x1="16741.02" y1="11990.86" x2="17127.55" y2="13037.04">
  </linearGradient>
  <linearGradient id="id61" gradientUnits="userSpaceOnUse" xlink:href="#id1" x1="16331.2" y1="12213.5" x2="16622.75" y2="13361.22">
  </linearGradient>
  <linearGradient id="id62" gradientUnits="userSpaceOnUse" xlink:href="#id1" x1="16063.57" y1="8034.19" x2="15736" y2="9163.56">
  </linearGradient>
  <linearGradient id="id63" gradientUnits="userSpaceOnUse" xlink:href="#id1" x1="16064.82" y1="12315.11" x2="16288.51" y2="13511.27">
  </linearGradient>
  <linearGradient id="id64" gradientUnits="userSpaceOnUse" xlink:href="#id1" x1="13842.6" y1="12301.34" x2="13606.95" y2="13497.11">
  </linearGradient>
  <linearGradient id="id65" gradientUnits="userSpaceOnUse" xlink:href="#id1" x1="13908.41" y1="12322.96" x2="13688.5" y2="13527.73">
  </linearGradient>
  <linearGradient id="id66" gradientUnits="userSpaceOnUse" xlink:href="#id1" x1="13554.73" y1="8213.29" x2="13992.63" y2="9193.97">
  </linearGradient>
  <linearGradient id="id67" gradientUnits="userSpaceOnUse" xlink:href="#id1" x1="14111.7" y1="12379.99" x2="13939.18" y2="13606.68">
  </linearGradient>
  <linearGradient id="id68" gradientUnits="userSpaceOnUse" xlink:href="#id1" x1="12212.25" y1="10738.7" x2="11603.68" y2="11036.8">
  </linearGradient>
  <linearGradient id="id69" gradientUnits="userSpaceOnUse" xlink:href="#id1" x1="14324.09" y1="12425.13" x2="14198.66" y2="13666.3">
  </linearGradient>
  <linearGradient id="id70" gradientUnits="userSpaceOnUse" xlink:href="#id1" x1="15355.62" y1="7754.24" x2="15231.78" y2="8997.4">
  </linearGradient>
  <linearGradient id="id71" gradientUnits="userSpaceOnUse" xlink:href="#id1" x1="13526.6" y1="12175.14" x2="13222.1" y2="13318.57">
  </linearGradient>
  <linearGradient id="id72" gradientUnits="userSpaceOnUse" xlink:href="#id1" x1="13706.92" y1="8075.3" x2="14089.72" y2="9138.41">
  </linearGradient>
  <linearGradient id="id73" gradientUnits="userSpaceOnUse" xlink:href="#id1" x1="12161.6" y1="10509.64" x2="11548.97" y2="10678.93">
  </linearGradient>
  <linearGradient id="id74" gradientUnits="userSpaceOnUse" xlink:href="#id1" x1="12135.87" y1="10266.72" x2="11525.54" y2="10311.61">
  </linearGradient>
  <linearGradient id="id75" gradientUnits="userSpaceOnUse" xlink:href="#id1" x1="13409.14" y1="12118.26" x2="13077.36" y2="13234.93">
  </linearGradient>
  <linearGradient id="id76" gradientUnits="userSpaceOnUse" xlink:href="#id1" x1="16307.88" y1="8159.4" x2="16604.9" y2="9319.44">
  </linearGradient>
  <linearGradient id="id77" gradientUnits="userSpaceOnUse" xlink:href="#id1" x1="14622.23" y1="12466.26" x2="14557.7" y2="13716.13">
  </linearGradient>
  <linearGradient id="id78" gradientUnits="userSpaceOnUse" xlink:href="#id1" x1="13417.03" y1="8370.4" x2="13903.04" y2="9257.32">
  </linearGradient>
  <linearGradient id="id79" gradientUnits="userSpaceOnUse" xlink:href="#id1" x1="13484.01" y1="8289.62" x2="13946.97" y2="9224.52">
  </linearGradient>
  <linearGradient id="id80" gradientUnits="userSpaceOnUse" xlink:href="#id1" x1="12144.99" y1="9945.26" x2="11532.84" y2="9846.05">
  </linearGradient>
  <linearGradient id="id81" gradientUnits="userSpaceOnUse" xlink:href="#id1" x1="16302.15" y1="8148.3" x2="16101.46" y2="9364.27">
  </linearGradient>
  <linearGradient id="id82" gradientUnits="userSpaceOnUse" xlink:href="#id1" x1="13629.03" y1="8141.81" x2="14040.2" y2="9165.3">
  </linearGradient>
  <linearGradient id="id83" gradientUnits="userSpaceOnUse" xlink:href="#id1" x1="16219.89" y1="8129.39" x2="15873.84" y2="9236.65">
  </linearGradient>
  <linearGradient id="id84" gradientUnits="userSpaceOnUse" xlink:href="#id1" x1="13140.68" y1="8833.29" x2="13711.79" y2="9455.14">
  </linearGradient>
  <linearGradient id="id85" gradientUnits="userSpaceOnUse" xlink:href="#id1" x1="13294.76" y1="8544.18" x2="13820.43" y2="9329.8">
  </linearGradient>
  <linearGradient id="id86" gradientUnits="userSpaceOnUse" xlink:href="#id1" x1="15471.63" y1="10415.48" x2="15471.63" y2="11662.94">
  </linearGradient>
  <linearGradient id="id87" gradientUnits="userSpaceOnUse" xlink:href="#id1" x1="12444.64" y1="11263.53" x2="11876.99" y2="11873.49">
  </linearGradient>
  <linearGradient id="id88" gradientUnits="userSpaceOnUse" xlink:href="#id1" x1="13872.81" y1="7958.08" x2="14195.36" y2="9089.26">
  </linearGradient>
  <linearGradient id="id89" gradientUnits="userSpaceOnUse" xlink:href="#id1" x1="14181.43" y1="12396.36" x2="14024.75" y2="13628.7">
  </linearGradient>
  <linearGradient id="id90" gradientUnits="userSpaceOnUse" xlink:href="#id1" x1="16383.51" y1="12189.76" x2="16687.85" y2="13326.3">
  </linearGradient>
  <linearGradient id="id91" gradientUnits="userSpaceOnUse" xlink:href="#id1" x1="12139.6" y1="10008.77" x2="11528.25" y2="9938.39">
  </linearGradient>
  <linearGradient id="id92" gradientUnits="userSpaceOnUse" xlink:href="#id1" x1="12266.38" y1="10902.68" x2="11665.41" y2="11297.87">
  </linearGradient>
  <linearGradient id="id93" gradientUnits="userSpaceOnUse" xlink:href="#id1" x1="12228.76" y1="10794.08" x2="11622.28" y2="11124.54">
  </linearGradient>
  <linearGradient id="id94" gradientUnits="userSpaceOnUse" xlink:href="#id1" x1="15899.87" y1="12363.38" x2="16082.2" y2="13580.84">
  </linearGradient>
  <linearGradient id="id95" gradientUnits="userSpaceOnUse" xlink:href="#id1" x1="14699.54" y1="12473.03" x2="14649.71" y2="13723.38">
  </linearGradient>
  <linearGradient id="id96" gradientUnits="userSpaceOnUse" xlink:href="#id1" x1="15194.6" y1="12477.42" x2="15234.79" y2="13726.64">
  </linearGradient>
  <linearGradient id="id97" gradientUnits="userSpaceOnUse" xlink:href="#id1" x1="13777.27" y1="12278.25" x2="13527.04" y2="13464.71">
  </linearGradient>
  <linearGradient id="id98" gradientUnits="userSpaceOnUse" xlink:href="#id1" x1="12170.14" y1="9761" x2="11557.59" y2="9572.49">
  </linearGradient>
  <linearGradient id="id99" gradientUnits="userSpaceOnUse" xlink:href="#id1" x1="14397" y1="12437.48" x2="14287.04" y2="13681.91">
  </linearGradient>
  <linearGradient id="id100" gradientUnits="userSpaceOnUse" xlink:href="#id1" x1="12301.73" y1="9310.76" x2="11705.44" y2="8873.71">
  </linearGradient>
  <linearGradient id="id101" gradientUnits="userSpaceOnUse" xlink:href="#id1" x1="12349.05" y1="9206.16" x2="11761.14" y2="8707.73">
  </linearGradient>
  <linearGradient id="id102" gradientUnits="userSpaceOnUse" xlink:href="#id1" x1="16278.67" y1="12236" x2="16556.97" y2="13394.6">
  </linearGradient>
  <linearGradient id="id103" gradientUnits="userSpaceOnUse" xlink:href="#id1" x1="16059.53" y1="11474.89" x2="15451.48" y2="11474.89">
  </linearGradient>
  <linearGradient id="id104" gradientUnits="userSpaceOnUse" xlink:href="#id1" x1="15195.23" y1="10422.55" x2="14924.82" y2="11602.19">
  </linearGradient>
  <linearGradient id="id105" gradientUnits="userSpaceOnUse" xlink:href="#id1" x1="14245.02" y1="7789.31" x2="14430.59" y2="9012.4">
  </linearGradient>
  <linearGradient id="id106" gradientUnits="userSpaceOnUse" xlink:href="#id1" x1="16276.51" y1="8148.23" x2="15967.24" y2="9299.52">
  </linearGradient>
  <linearGradient id="id107" gradientUnits="userSpaceOnUse" xlink:href="#id1" x1="12194.3" y1="9643.02" x2="11583.32" y2="9393.37">
  </linearGradient>
  <linearGradient id="id108" gradientUnits="userSpaceOnUse" xlink:href="#id1" x1="12725.24" y1="11621.91" x2="12223.29" y2="12454.71">
  </linearGradient>
  <linearGradient id="id109" gradientUnits="userSpaceOnUse" xlink:href="#id1" x1="12324.7" y1="9258.17" x2="11732.37" y2="8790.1">
  </linearGradient>
  <linearGradient id="id110" gradientUnits="userSpaceOnUse" xlink:href="#id1" x1="16640.3" y1="12053.76" x2="17004.88" y2="13127.48">
  </linearGradient>
  <linearGradient id="id111" gradientUnits="userSpaceOnUse" xlink:href="#id1" x1="13239.46" y1="8636.97" x2="13782.16" y2="9369.16">
  </linearGradient>
  <linearGradient id="id112" gradientUnits="userSpaceOnUse" xlink:href="#id1" x1="15494.86" y1="12446.12" x2="15593.97" y2="13689.56">
  </linearGradient>
  <linearGradient id="id113" gradientUnits="userSpaceOnUse" xlink:href="#id1" x1="12183.84" y1="10625.88" x2="11572.39" y2="10859.06">
  </linearGradient>
  <linearGradient id="id114" gradientUnits="userSpaceOnUse" xlink:href="#id1" x1="15733.84" y1="7867.78" x2="15494.35" y2="9060.61">
  </linearGradient>
  <linearGradient id="id115" gradientUnits="userSpaceOnUse" xlink:href="#id1" x1="12808.11" y1="11702.94" x2="12326.72" y2="12585.79">
  </linearGradient>
  <linearGradient id="id116" gradientUnits="userSpaceOnUse" xlink:href="#id1" x1="13975.16" y1="12343.26" x2="13771.09" y2="13556.22">
  </linearGradient>
  <linearGradient id="id117" gradientUnits="userSpaceOnUse" xlink:href="#id1" x1="13353.94" y1="8455.3" x2="13860.79" y2="9292.49">
  </linearGradient>
  <linearGradient id="id118" gradientUnits="userSpaceOnUse" xlink:href="#id1" x1="12685.75" y1="11580.21" x2="12174.07" y2="12386.94">
  </linearGradient>
  <linearGradient id="id119" gradientUnits="userSpaceOnUse" xlink:href="#id1" x1="13188.1" y1="8733.36" x2="13745.93" y2="9410.91">
  </linearGradient>
  <linearGradient id="id120" gradientUnits="userSpaceOnUse" xlink:href="#id1" x1="16435.49" y1="12164.91" x2="16752.4" y2="13289.74">
  </linearGradient>
  <linearGradient id="id121" gradientUnits="userSpaceOnUse" xlink:href="#id1" x1="14763.17" y1="7714.84" x2="14778.62" y2="8964.03">
  </linearGradient>
  <linearGradient id="id122" gradientUnits="userSpaceOnUse" xlink:href="#id1" x1="12280.21" y1="9363.99" x2="11680.37" y2="8958.34">
  </linearGradient>
  <linearGradient id="id123" gradientUnits="userSpaceOnUse" xlink:href="#id1" x1="12181.48" y1="9701.49" x2="11569.53" y2="9482.64">
  </linearGradient>
  <linearGradient id="id124" gradientUnits="userSpaceOnUse" xlink:href="#id1" x1="13037.5" y1="11891.58" x2="12613.8" y2="12886.34">
  </linearGradient>
  <linearGradient id="id125" gradientUnits="userSpaceOnUse" xlink:href="#id1" x1="13960.54" y1="7907.61" x2="14251.8" y2="9066.82">
  </linearGradient>
  <linearGradient id="id126" gradientUnits="userSpaceOnUse" xlink:href="#id1" x1="15071.8" y1="12483.35" x2="15088.94" y2="13732.12">
  </linearGradient>
  <linearGradient id="id127" gradientUnits="userSpaceOnUse" xlink:href="#id1" x1="16589.54" y1="12083.35" x2="16942.64" y2="13170.4">
  </linearGradient>
  <linearGradient id="id128" gradientUnits="userSpaceOnUse" xlink:href="#id1" x1="14042.91" y1="12362.26" x2="13854.67" y2="13582.53">
  </linearGradient>
  <linearGradient id="id129" gradientUnits="userSpaceOnUse" xlink:href="#id1" x1="12287.49" y1="10955.97" x2="11689.96" y2="11383.4">
  </linearGradient>
  <linearGradient id="id130" gradientUnits="userSpaceOnUse" xlink:href="#id1" x1="12942.17" y1="11818.75" x2="12494.2" y2="12770.95">
  </linearGradient>
  <linearGradient id="id131" gradientUnits="userSpaceOnUse" xlink:href="#id1" x1="12359.97" y1="11112.8" x2="11775.37" y2="11634.26">
  </linearGradient>
  <linearGradient id="id132" gradientUnits="userSpaceOnUse" xlink:href="#id1" x1="15612.35" y1="12427.1" x2="15735.3" y2="13665.29">
  </linearGradient>
  <linearGradient id="id133" gradientUnits="userSpaceOnUse" xlink:href="#id1" x1="14863.97" y1="7714.73" x2="14856.38" y2="8963.05">
  </linearGradient>
  <linearGradient id="id134" gradientUnits="userSpaceOnUse" xlink:href="#id1" x1="14655.99" y1="7718.17" x2="14703.21" y2="8968.86">
  </linearGradient>
  <linearGradient id="id135" gradientUnits="userSpaceOnUse" xlink:href="#id1" x1="16225.74" y1="12257.43" x2="16490.68" y2="13426.27">
  </linearGradient>
  <linearGradient id="id136" gradientUnits="userSpaceOnUse" xlink:href="#id1" x1="12507.3" y1="11358.79" x2="11953.32" y2="12026.81">
  </linearGradient>
  <linearGradient id="id137" gradientUnits="userSpaceOnUse" xlink:href="#id1" x1="15457.93" y1="7776.17" x2="15302.46" y2="9010.96">
  </linearGradient>
  <linearGradient id="id138" gradientUnits="userSpaceOnUse" xlink:href="#id1" x1="12224.32" y1="9528.76" x2="11616.51" y2="9217.08">
  </linearGradient>
  <linearGradient id="id139" gradientUnits="userSpaceOnUse" xlink:href="#id1" x1="12208.58" y1="9585.49" x2="11598.99" y2="9304.81">
  </linearGradient>
  <linearGradient id="id140" gradientUnits="userSpaceOnUse" xlink:href="#id1" x1="15133.39" y1="12480.86" x2="15162.02" y2="13730.04">
  </linearGradient>
  <linearGradient id="id141" gradientUnits="userSpaceOnUse" xlink:href="#id1" x1="12135.71" y1="10073.22" x2="11525.47" y2="10031.4">
  </linearGradient>
  <linearGradient id="id142" gradientUnits="userSpaceOnUse" xlink:href="#id1" x1="12896.21" y1="11780.92" x2="12436.74" y2="12710.81">
  </linearGradient>
  <linearGradient id="id143" gradientUnits="userSpaceOnUse" xlink:href="#id1" x1="14857.49" y1="12482.21" x2="14836.48" y2="13731.73">
  </linearGradient>
  <linearGradient id="id144" gradientUnits="userSpaceOnUse" xlink:href="#id1" x1="14550.42" y1="7727.06" x2="14630.86" y2="8976.3">
  </linearGradient>
  <linearGradient id="id145" gradientUnits="userSpaceOnUse" xlink:href="#id1" x1="15009.87" y1="12484.88" x2="15015.53" y2="13732.87">
  </linearGradient>
  <linearGradient id="id146" gradientUnits="userSpaceOnUse" xlink:href="#id1" x1="14546.07" y1="12458.07" x2="14466.55" y2="13706.81">
  </linearGradient>
  <linearGradient id="id147" gradientUnits="userSpaceOnUse" xlink:href="#id1" x1="15728.4" y1="12404.38" x2="15875.2" y2="13635.58">
  </linearGradient>
  <linearGradient id="id148" gradientUnits="userSpaceOnUse" xlink:href="#id1" x1="13352.34" y1="12088.51" x2="13006.98" y2="13190.44">
  </linearGradient>
  <linearGradient id="id149" gradientUnits="userSpaceOnUse" xlink:href="#id1" x1="12151.87" y1="9882.79" x2="11539.25" y2="9754.29">
  </linearGradient>
  <linearGradient id="id150" gradientUnits="userSpaceOnUse" xlink:href="#id1" x1="15553.8" y1="12437.07" x2="15664.79" y2="13678.11">
  </linearGradient>
  <linearGradient id="id151" gradientUnits="userSpaceOnUse" xlink:href="#id1" x1="16010.47" y1="12332.15" x2="16220.02" y2="13536.25">
  </linearGradient>
  <linearGradient id="id152" gradientUnits="userSpaceOnUse" xlink:href="#id1" x1="13296.75" y1="12057.85" x2="12938" y2="13144.22">
  </linearGradient>
  <linearGradient id="id153" gradientUnits="userSpaceOnUse" xlink:href="#id1" x1="14777.9" y1="12478.35" x2="14742.69" y2="13728.57">
  </linearGradient>
  <linearGradient id="id154" gradientUnits="userSpaceOnUse" xlink:href="#id1" x1="16307.67" y1="8145.48" x2="16434.85" y2="9388.44">
  </linearGradient>
  <linearGradient id="id155" gradientUnits="userSpaceOnUse" xlink:href="#id1" x1="13242.47" y1="12026.38" x2="12870.33" y2="13096.16">
  </linearGradient>
  <linearGradient id="id156" gradientUnits="userSpaceOnUse" xlink:href="#id1" x1="12574.92" y1="11450.08" x2="12036.51" y2="12174.98">
  </linearGradient>
  <linearGradient id="id157" gradientUnits="userSpaceOnUse" xlink:href="#id1" x1="16392.81" y1="7800.74" x2="17223.65" y2="8809.06">
  </linearGradient>
  <linearGradient id="id158" gradientUnits="userSpaceOnUse" xlink:href="#id1" x1="15238.63" y1="10636.86" x2="14645" y2="11151.27">
  </linearGradient>
  <linearGradient id="id159" gradientUnits="userSpaceOnUse" xlink:href="#id1" x1="15226.85" y1="10768.79" x2="14616.86" y2="10885.53">
  </linearGradient>
  <linearGradient id="id160" gradientUnits="userSpaceOnUse" xlink:href="#id1" x1="15255.38" y1="12473.04" x2="15307.3" y2="13721.91">
  </linearGradient>
  <linearGradient id="id161" gradientUnits="userSpaceOnUse" xlink:href="#id1" x1="15181.79" y1="10409.72" x2="15106.83" y2="11659.27">
  </linearGradient>
  <linearGradient id="id162" gradientUnits="userSpaceOnUse" xlink:href="#id1" x1="12260.14" y1="9418.05" x2="11657.2" y2="9043.81">
  </linearGradient>
  <linearGradient id="id163" gradientUnits="userSpaceOnUse" xlink:href="#id1" x1="15223.66" y1="10435.97" x2="14615.61" y2="10435.97">
  </linearGradient>
  <linearGradient id="id164" gradientUnits="userSpaceOnUse" xlink:href="#id1" x1="15223.2" y1="10499.7" x2="14755.51" y2="11431.71">
  </linearGradient>
  <linearGradient id="id165" gradientUnits="userSpaceOnUse" xlink:href="#id1" x1="15785.93" y1="12391.62" x2="15944.56" y2="13618.7">
  </linearGradient>
  <linearGradient id="id166" gradientUnits="userSpaceOnUse" xlink:href="#id1" x1="15435.53" y1="12454.25" x2="15522.81" y2="13699.67">
  </linearGradient>
  <linearGradient id="id167" gradientUnits="userSpaceOnUse" xlink:href="#id1" x1="15251.2" y1="7737.63" x2="15158.14" y2="8986">
  </linearGradient>
 </defs>
 <g id="Capa_x0020_1">
  <metadata id="CorelCorpID_0Corel-Layer"/>
  <g id="_2704126926640">
   <image x="7752.81" y="2900.55" width="14317.95" height="14317.95" xlink:href="logo-header_Images\logo-header_ImgID1.png"/>
  </g>
  <g id="_2704126926976">
   <image x="22053.22" y="6280.54" width="7901.51" height="7901.51" xlink:href="logo-header_Images\logo-header_ImgID2.png"/>
  </g>
  <g id="_2704126928752">
   <image x="-17.48" y="6182.46" width="7901.51" height="7901.5" xlink:href="logo-header_Images\logo-header_ImgID3.png"/>
  </g>
  <g id="_2704133462608">
   <polygon class="fil0" points="16059.53,11286.83 15451.48,12534.29 15451.48,11662.94 16059.53,10415.48 "/>
   <polygon class="fil1" points="16059.53,11286.83 15451.48,12534.29 15451.48,11662.94 16059.53,10415.48 "/>
   <polygon class="fil2" points="17305.45,7387.44 16697.4,8634.89 16311.01,9222.37 16919.06,7974.91 "/>
   <polygon class="fil3" points="16919.06,7974.91 16311.01,9222.37 16299.47,9239.2 16287.54,9255.21 16275.19,9270.37 16262.44,9284.71 16870.49,8037.26 16883.24,8022.92 16895.59,8007.75 16907.52,7991.74 "/>
   <polygon class="fil4" points="16870.49,8037.26 16262.44,9284.71 16249.29,9298.22 16235.72,9310.9 16221.74,9322.74 16207.35,9333.75 16192.54,9343.93 16800.59,8096.47 16815.4,8086.29 16829.79,8075.29 16843.76,8063.44 16857.33,8050.76 "/>
   <polygon class="fil5" points="16800.59,8096.47 16192.54,9343.93 16177.31,9353.28 16161.66,9361.79 16145.6,9369.48 16129.1,9376.33 16112.19,9382.36 16720.24,8134.9 16737.15,8128.88 16753.65,8122.02 16769.71,8114.34 16785.36,8105.83 "/>
   <polygon class="fil6" points="16720.24,8134.9 16112.19,9382.36 16094.84,9387.55 16077.07,9391.91 16068.05,9393.75 16058.99,9395.32 16049.88,9396.65 16040.73,9397.7 16031.52,9398.49 16022.28,9399.02 16630.32,8151.56 16639.57,8151.03 16648.78,8150.24 16657.93,8149.19 16667.04,8147.87 16676.1,8146.29 16685.12,8144.45 16702.89,8140.09 "/>
   <polygon class="fil7" points="16630.32,8151.56 16022.28,9399.02 16012.99,9399.29 16003.66,9399.3 15994.28,9399.05 15984.85,9398.53 15975.39,9397.75 15965.88,9396.71 15956.33,9395.41 15946.72,9393.85 15937.09,9392.03 16545.14,8144.57 16554.77,8146.4 16564.38,8147.95 16573.93,8149.25 16583.44,8150.3 16592.9,8151.07 16602.33,8151.59 16611.71,8151.84 16621.04,8151.83 "/>
   <polygon class="fil8" points="16545.14,8144.57 15937.09,9392.03 15927.41,9389.93 15917.68,9387.58 15907.91,9384.98 15898.11,9382.11 15888.26,9378.97 15878.37,9375.57 15868.43,9371.92 15858.47,9368 16466.52,8120.54 16476.48,8124.46 16486.42,8128.11 16496.31,8131.51 16506.16,8134.65 16515.96,8137.52 16525.73,8140.13 16535.46,8142.47 "/>
   <polygon class="fil9" points="16466.52,8120.54 15858.47,9368 15848.45,9363.82 15838.4,9359.37 15828.3,9354.67 15818.17,9349.7 15808,9344.47 15797.78,9338.98 15787.53,9333.23 15777.24,9327.21 16385.28,8079.76 16395.58,8085.77 16405.83,8091.52 16416.05,8097.01 16426.22,8102.24 16436.35,8107.21 16446.45,8111.92 16456.5,8116.36 "/>
   <polygon class="fil10" points="16385.28,8079.76 15777.24,9327.21 15766.91,9320.94 15747.27,9309.2 15727.78,9297.65 15708.44,9286.29 16316.49,8038.83 16335.83,8050.2 16355.32,8061.74 16374.95,8073.48 "/>
   <polygon class="fil11" points="16316.49,8038.83 15708.44,9286.29 15689.26,9275.12 15670.22,9264.14 15651.32,9253.37 15632.58,9242.78 16240.62,7995.32 16259.37,8005.91 16278.27,8016.68 16297.31,8027.67 "/>
   <polygon class="fil12" points="16240.62,7995.32 15632.58,9242.78 15613.96,9232.39 15595.49,9222.2 15577.15,9212.22 15558.94,9202.43 16166.99,7954.97 16185.2,7964.76 16203.54,7974.75 16222.01,7984.93 "/>
   <polygon class="fil13" points="16166.99,7954.97 15558.94,9202.43 15540.87,9192.85 15522.94,9183.49 15505.13,9174.33 15487.44,9165.39 16095.49,7917.93 16113.18,7926.87 16130.98,7936.03 16148.92,7945.4 "/>
   <polygon class="fil14" points="16095.49,7917.93 15487.44,9165.39 15469.89,9156.65 15452.36,9148.13 15434.77,9139.83 15417.12,9131.74 16025.17,7884.28 16042.82,7892.38 16060.41,7900.67 16077.93,7909.2 "/>
   <polygon class="fil15" points="16025.17,7884.28 15417.12,9131.74 15399.43,9123.86 15381.68,9116.18 15363.87,9108.72 15346.01,9101.45 15954.06,7853.99 15971.92,7861.26 15989.73,7868.73 16007.48,7876.4 "/>
   <polygon class="fil16" points="15954.06,7853.99 15346.01,9101.45 15328.1,9094.39 15310.16,9087.53 15292.16,9080.87 15274.12,9074.39 15882.17,7826.94 15900.21,7833.41 15918.21,7840.07 15936.15,7846.93 "/>
   <polygon class="fil17" points="15882.17,7826.94 15274.12,9074.39 15256.05,9068.13 15237.93,9062.04 15219.78,9056.16 15201.59,9050.46 15809.64,7803 15827.83,7808.7 15845.98,7814.59 15864.09,7820.67 "/>
   <polygon class="fil18" points="15809.64,7803 15201.59,9050.46 15183.37,9044.95 15174.23,9042.25 15165.08,9039.62 15155.88,9037.02 15146.66,9034.47 15137.4,9031.97 15128.11,9029.51 15118.79,9027.1 15726.84,7779.64 15736.16,7782.06 15745.45,7784.52 15754.71,7787.01 15763.93,7789.56 15773.13,7792.16 15782.28,7794.8 15791.42,7797.49 "/>
   <polygon class="fil19" points="15726.84,7779.64 15118.79,9027.1 15109.45,9024.73 15100.07,9022.42 15090.65,9020.14 15081.22,9017.92 15071.75,9015.74 15062.24,9013.6 15052.71,9011.52 15043.15,9009.48 15033.55,9007.49 15641.6,7760.03 15651.19,7762.02 15660.76,7764.06 15670.29,7766.15 15679.8,7768.28 15689.27,7770.46 15698.7,7772.69 15708.12,7774.96 15717.5,7777.28 "/>
   <polygon class="fil20" points="15641.6,7760.03 15033.55,9007.49 15023.92,9005.54 15014.26,9003.64 15004.58,9001.78 14994.86,8999.97 14985.11,8998.21 14975.33,8996.49 14965.53,8994.82 14955.68,8993.19 14945.81,8991.62 15553.86,7744.16 15563.73,7745.73 15573.57,7747.36 15583.38,7749.03 15593.16,7750.75 15602.91,7752.51 15612.63,7754.32 15622.31,7756.18 15631.97,7758.08 "/>
   <polygon class="fil21" points="15553.86,7744.16 14945.81,8991.62 14935.91,8990.08 14925.97,8988.6 14916.01,8987.15 14906.01,8985.76 14895.98,8984.42 14885.92,8983.11 14875.84,8981.85 14865.69,8980.64 14855.48,8979.47 15463.52,7732.01 15473.74,7733.19 15483.88,7734.4 15493.97,7735.66 15504.03,7736.96 15514.06,7738.3 15524.05,7739.7 15534.02,7741.14 15543.96,7742.62 "/>
   <polygon class="fil22" points="15463.52,7732.01 14855.48,8979.47 14845.18,8978.33 14834.81,8977.24 14824.36,8976.17 14813.83,8975.16 14803.23,8974.17 14792.54,8973.23 14781.79,8972.33 14770.95,8971.46 15379,7724 15389.84,7724.87 15400.59,7725.77 15411.28,7726.71 15421.87,7727.7 15432.41,7728.72 15442.86,7729.78 15453.22,7730.88 "/>
   <polygon class="fil23" points="15379,7724 14770.95,8971.46 14760.04,8970.63 14749.05,8969.84 14737.98,8969.09 14726.85,8968.38 14715.62,8967.71 14704.33,8967.07 14692.95,8966.48 14681.51,8965.92 15289.56,7718.46 15301,7719.02 15312.37,7719.62 15323.67,7720.25 15334.89,7720.92 15346.03,7721.64 15357.1,7722.38 15368.09,7723.18 "/>
   <polygon class="fil24" points="15289.56,7718.46 14681.51,8965.92 14669.98,8965.4 14658.37,8964.91 14646.69,8964.48 14634.93,8964.07 14623.09,8963.7 14611.18,8963.38 14599.19,8963.09 15207.24,7715.63 15219.23,7715.92 15231.14,7716.25 15242.98,7716.62 15254.74,7717.02 15266.42,7717.46 15278.03,7717.94 "/>
   <polygon class="fil25" points="15207.24,7715.63 14599.19,8963.09 14587.12,8962.84 14574.98,8962.63 14562.76,8962.45 14550.46,8962.32 14538.09,8962.22 14525.63,8962.17 14513.11,8962.15 15121.16,7714.69 15133.68,7714.71 15146.14,7714.77 15158.51,7714.87 15170.81,7715 15183.03,7715.18 15195.17,7715.38 "/>
   <polygon class="fil26" points="15121.16,7714.69 14513.11,8962.15 14489.77,8962.28 14466.58,8962.66 14443.53,8963.29 14420.64,8964.19 15028.69,7716.73 15051.58,7715.84 15074.63,7715.2 15097.82,7714.82 "/>
   <polygon class="fil27" points="15028.69,7716.73 14420.64,8964.19 14397.89,8965.33 14375.28,8966.73 14352.82,8968.39 14330.5,8970.3 14938.55,7722.84 14960.87,7720.93 14983.33,7719.27 15005.94,7717.88 "/>
   <polygon class="fil28" points="14938.55,7722.84 14330.5,8970.3 14308.34,8972.47 14286.32,8974.89 14264.45,8977.57 14242.72,8980.51 14850.77,7733.06 14872.5,7730.11 14894.37,7727.43 14916.39,7725.01 "/>
   <polygon class="fil29" points="14850.77,7733.06 14242.72,8980.51 14221.14,8983.71 14199.7,8987.16 14178.41,8990.87 14157.27,8994.84 14765.32,7747.38 14786.46,7743.41 14807.75,7739.71 14829.19,7736.25 "/>
   <polygon class="fil30" points="14765.32,7747.38 14157.27,8994.84 14136.28,8999.07 14115.43,9003.55 14094.72,9008.29 14074.17,9013.29 14682.21,7765.83 14702.77,7760.83 14723.47,7756.09 14744.33,7751.61 "/>
   <polygon class="fil31" points="14682.21,7765.83 14074.17,9013.29 14053.76,9018.55 14033.49,9024.07 14013.38,9029.85 13993.4,9035.88 14601.45,7788.43 14621.42,7782.39 14641.54,7776.62 14661.81,7771.09 "/>
   <polygon class="fil32" points="14601.45,7788.43 13993.4,9035.88 13973.58,9042.19 13953.9,9048.74 13934.37,9055.56 13914.98,9062.64 14523.03,7815.18 14542.42,7808.11 14561.95,7801.29 14581.63,7794.73 "/>
   <polygon class="fil33" points="14523.03,7815.18 13914.98,9062.64 13895.74,9069.98 13876.64,9077.58 13857.7,9085.45 13838.9,9093.57 14446.94,7846.12 14465.75,7837.99 14484.69,7830.12 14503.78,7822.52 "/>
   <polygon class="fil34" points="14446.94,7846.12 13838.9,9093.57 13820.26,9101.94 13801.79,9110.51 13783.51,9119.3 13765.4,9128.31 14373.45,7880.86 14391.56,7871.85 14409.84,7863.06 14428.31,7854.48 "/>
   <polygon class="fil35" points="14373.45,7880.86 13765.4,9128.31 13747.46,9137.53 13729.7,9146.98 13712.13,9156.62 13694.72,9166.49 14302.77,7919.03 14320.18,7909.17 14337.75,7899.52 14355.51,7890.08 "/>
   <polygon class="fil36" points="14302.77,7919.03 13694.72,9166.49 13677.49,9176.57 13660.43,9186.87 13643.55,9197.37 13626.84,9208.08 14234.89,7960.63 14251.6,7949.92 14268.48,7939.41 14285.54,7929.11 "/>
   <polygon class="fil37" points="14234.89,7960.63 13626.84,9208.08 13610.31,9219.02 13593.95,9230.16 13577.76,9241.52 13561.75,9253.09 14169.8,8005.63 14185.81,7994.06 14202,7982.71 14218.36,7971.56 "/>
   <polygon class="fil38" points="14169.8,8005.63 13561.75,9253.09 13545.92,9264.87 13530.25,9276.85 13514.75,9289.06 13499.43,9301.48 14107.48,8054.02 14122.8,8041.61 14138.3,8029.4 14153.97,8017.41 "/>
   <polygon class="fil39" points="14107.48,8054.02 13499.43,9301.48 13484.29,9314.1 13469.31,9326.93 13454.51,9339.98 13439.87,9353.23 14047.92,8105.78 14062.56,8092.53 14077.36,8079.48 14092.34,8066.64 "/>
   <polygon class="fil40" points="14047.92,8105.78 13439.87,9353.23 13425.42,9366.7 13411.12,9380.37 13397.01,9394.26 13383.06,9408.35 13991.11,8160.9 14005.06,8146.81 14019.17,8132.92 14033.47,8119.25 "/>
   <polygon class="fil41" points="13991.11,8160.9 13383.06,9408.35 13369.28,9422.66 13355.67,9437.17 13342.24,9451.88 13328.97,9466.81 13937.01,8219.36 13950.29,8204.43 13963.72,8189.71 13977.33,8175.2 "/>
   <polygon class="fil42" points="13937.01,8219.36 13328.97,9466.81 13315.87,9481.94 13302.97,9497.25 13290.25,9512.74 13277.71,9528.42 13885.76,8280.97 13898.3,8265.28 13911.02,8249.8 13923.92,8234.48 "/>
   <polygon class="fil43" points="13885.76,8280.97 13277.71,9528.42 13265.36,9544.29 13253.2,9560.34 13241.22,9576.58 13229.43,9593 13837.48,8345.55 13849.27,8329.13 13861.25,8312.89 13873.41,8296.84 "/>
   <polygon class="fil44" points="13837.48,8345.55 13229.43,9593 13217.83,9609.62 13206.41,9626.41 13195.18,9643.4 13184.14,9660.57 13792.19,8413.12 13803.23,8395.94 13814.46,8378.96 13825.87,8362.16 "/>
   <polygon class="fil45" points="13792.19,8413.12 13184.14,9660.57 13173.28,9677.94 13162.61,9695.48 13152.14,9713.22 13141.85,9731.14 13749.89,8483.69 13760.19,8465.77 13770.66,8448.03 13781.33,8430.48 "/>
   <polygon class="fil46" points="13749.89,8483.69 13141.85,9731.14 13131.75,9749.26 13121.83,9767.56 13112.11,9786.06 13102.58,9804.74 13710.63,8557.28 13720.16,8538.6 13729.88,8520.1 13739.8,8501.8 "/>
   <polygon class="fil47" points="13710.63,8557.28 13102.58,9804.74 13093.23,9823.61 13084.07,9842.67 13075.11,9861.92 13683.16,8614.46 13692.12,8595.21 13701.28,8576.15 "/>
   <polygon class="fil1" points="17305.45,7387.44 16697.4,8634.89 16311.01,9222.37 16299.47,9239.2 16287.54,9255.21 16275.19,9270.37 16262.44,9284.71 16249.29,9298.22 16235.72,9310.9 16221.74,9322.74 16207.35,9333.75 16192.54,9343.93 16177.31,9353.28 16161.66,9361.79 16145.6,9369.48 16129.1,9376.33 16112.19,9382.36 16094.84,9387.55 16077.07,9391.91 16068.05,9393.75 16058.99,9395.32 16049.88,9396.65 16040.73,9397.7 16031.52,9398.49 16022.28,9399.02 16012.99,9399.29 16003.66,9399.3 15994.28,9399.05 15984.85,9398.53 15975.39,9397.75 15965.88,9396.71 15956.33,9395.41 15946.72,9393.85 15937.09,9392.03 15927.41,9389.93 15917.68,9387.58 15907.91,9384.98 15898.11,9382.11 15888.26,9378.97 15878.37,9375.57 15868.43,9371.92 15858.47,9368 15848.45,9363.82 15838.4,9359.37 15828.3,9354.67 15818.17,9349.7 15808,9344.47 15797.78,9338.98 15787.53,9333.23 15777.24,9327.21 15766.91,9320.94 15747.27,9309.2 15727.78,9297.65 15708.44,9286.29 15689.26,9275.12 15670.22,9264.14 15651.32,9253.37 15632.58,9242.78 15613.96,9232.39 15595.49,9222.2 15577.15,9212.22 15558.94,9202.43 15540.87,9192.85 15522.94,9183.49 15505.13,9174.33 15487.44,9165.39 15469.89,9156.65 15452.36,9148.13 15434.77,9139.83 15417.12,9131.74 15399.43,9123.86 15381.68,9116.18 15363.87,9108.72 15346.01,9101.45 15328.1,9094.39 15310.16,9087.53 15292.16,9080.87 15274.12,9074.39 15256.05,9068.13 15237.93,9062.04 15219.78,9056.16 15201.59,9050.46 15183.37,9044.95 15174.23,9042.25 15165.08,9039.62 15155.88,9037.02 15146.66,9034.47 15137.4,9031.97 15128.11,9029.51 15118.79,9027.1 15109.45,9024.73 15100.07,9022.42 15090.65,9020.14 15081.22,9017.92 15071.75,9015.74 15062.24,9013.6 15052.71,9011.52 15043.15,9009.48 15033.55,9007.49 15023.92,9005.54 15014.26,9003.64 15004.58,9001.78 14994.86,8999.97 14985.11,8998.21 14975.33,8996.49 14965.53,8994.82 14955.68,8993.19 14945.81,8991.62 14935.91,8990.08 14925.97,8988.6 14916.01,8987.15 14906.01,8985.76 14895.98,8984.42 14885.92,8983.11 14875.84,8981.85 14865.69,8980.64 14855.48,8979.47 14845.18,8978.33 14834.81,8977.24 14824.36,8976.17 14813.83,8975.16 14803.23,8974.17 14792.54,8973.23 14781.79,8972.33 14770.95,8971.46 14760.04,8970.63 14749.05,8969.84 14737.98,8969.09 14726.85,8968.38 14715.62,8967.71 14704.33,8967.07 14692.95,8966.48 14681.51,8965.92 14669.98,8965.4 14658.37,8964.91 14646.69,8964.48 14634.93,8964.07 14623.09,8963.7 14611.18,8963.38 14599.19,8963.09 14587.12,8962.84 14574.98,8962.63 14562.76,8962.45 14550.46,8962.32 14538.09,8962.22 14525.63,8962.17 14513.11,8962.15 14489.77,8962.28 14466.58,8962.66 14443.53,8963.29 14420.64,8964.19 14397.89,8965.33 14375.28,8966.73 14352.82,8968.39 14330.5,8970.3 14308.34,8972.47 14286.32,8974.89 14264.45,8977.57 14242.72,8980.51 14221.14,8983.71 14199.7,8987.16 14178.41,8990.87 14157.27,8994.84 14136.28,8999.07 14115.43,9003.55 14094.72,9008.29 14074.17,9013.29 14053.76,9018.55 14033.49,9024.07 14013.38,9029.85 13993.4,9035.88 13973.58,9042.19 13953.9,9048.74 13934.37,9055.56 13914.98,9062.64 13895.74,9069.98 13876.64,9077.58 13857.7,9085.45 13838.9,9093.57 13820.26,9101.94 13801.79,9110.51 13783.51,9119.3 13765.4,9128.31 13747.46,9137.53 13729.7,9146.98 13712.13,9156.62 13694.72,9166.49 13677.49,9176.57 13660.43,9186.87 13643.55,9197.37 13626.84,9208.08 13610.31,9219.02 13593.95,9230.16 13577.76,9241.52 13561.75,9253.09 13545.92,9264.87 13530.25,9276.85 13514.75,9289.06 13499.43,9301.48 13484.29,9314.1 13469.31,9326.93 13454.51,9339.98 13439.87,9353.23 13425.42,9366.7 13411.12,9380.37 13397.01,9394.26 13383.06,9408.35 13369.28,9422.66 13355.67,9437.17 13342.24,9451.88 13328.97,9466.81 13315.87,9481.94 13302.97,9497.25 13290.25,9512.74 13277.71,9528.42 13265.36,9544.29 13253.2,9560.34 13241.22,9576.58 13229.43,9593 13217.83,9609.62 13206.41,9626.41 13195.18,9643.4 13184.14,9660.57 13173.28,9677.94 13162.61,9695.48 13152.14,9713.22 13141.85,9731.14 13131.75,9749.26 13121.83,9767.56 13112.11,9786.06 13102.58,9804.74 13093.23,9823.61 13084.07,9842.67 13075.11,9861.92 13683.16,8614.46 13692.12,8595.21 13701.28,8576.15 13710.63,8557.28 13720.16,8538.6 13729.88,8520.1 13739.8,8501.8 13749.89,8483.69 13760.19,8465.77 13770.66,8448.03 13781.33,8430.48 13792.19,8413.12 13803.23,8395.94 13814.46,8378.96 13825.87,8362.16 13837.48,8345.55 13849.27,8329.13 13861.25,8312.89 13873.41,8296.84 13885.76,8280.97 13898.3,8265.28 13911.02,8249.8 13923.92,8234.48 13937.01,8219.36 13950.29,8204.43 13963.72,8189.71 13977.33,8175.2 13991.11,8160.9 14005.06,8146.81 14019.17,8132.92 14033.47,8119.25 14047.92,8105.78 14062.56,8092.53 14077.36,8079.48 14092.34,8066.64 14107.48,8054.02 14122.8,8041.61 14138.3,8029.4 14153.97,8017.41 14169.8,8005.63 14185.81,7994.06 14202,7982.71 14218.36,7971.56 14234.89,7960.63 14251.6,7949.92 14268.48,7939.41 14285.54,7929.11 14302.77,7919.03 14320.18,7909.17 14337.75,7899.52 14355.51,7890.08 14373.45,7880.86 14391.56,7871.85 14409.84,7863.06 14428.31,7854.48 14446.94,7846.12 14465.75,7837.99 14484.69,7830.12 14503.78,7822.52 14523.03,7815.18 14542.42,7808.11 14561.95,7801.29 14581.63,7794.73 14601.45,7788.43 14621.42,7782.39 14641.54,7776.62 14661.81,7771.09 14682.21,7765.83 14702.77,7760.83 14723.47,7756.09 14744.33,7751.61 14765.32,7747.38 14786.46,7743.41 14807.75,7739.71 14829.19,7736.25 14850.77,7733.06 14872.5,7730.11 14894.37,7727.43 14916.39,7725.01 14938.55,7722.84 14960.87,7720.93 14983.33,7719.27 15005.94,7717.88 15028.69,7716.73 15051.58,7715.84 15074.63,7715.2 15097.82,7714.82 15121.16,7714.69 15133.68,7714.71 15146.14,7714.77 15158.51,7714.87 15170.81,7715 15183.03,7715.18 15195.17,7715.38 15207.24,7715.63 15219.23,7715.92 15231.14,7716.25 15242.98,7716.62 15254.74,7717.02 15266.42,7717.46 15278.03,7717.94 15289.56,7718.46 15301,7719.02 15312.37,7719.62 15323.67,7720.25 15334.89,7720.92 15346.03,7721.64 15357.1,7722.38 15368.09,7723.18 15379,7724 15389.84,7724.87 15400.59,7725.77 15411.28,7726.71 15421.87,7727.7 15432.41,7728.72 15442.86,7729.78 15453.22,7730.88 15463.52,7732.01 15473.74,7733.19 15483.88,7734.4 15493.97,7735.66 15504.03,7736.96 15514.06,7738.3 15524.05,7739.7 15534.02,7741.14 15543.96,7742.62 15553.86,7744.16 15563.73,7745.73 15573.57,7747.36 15583.38,7749.03 15593.16,7750.75 15602.91,7752.51 15612.63,7754.32 15622.31,7756.18 15631.97,7758.08 15641.6,7760.03 15651.19,7762.02 15660.76,7764.06 15670.29,7766.15 15679.8,7768.28 15689.27,7770.46 15698.7,7772.69 15708.12,7774.96 15717.5,7777.28 15726.84,7779.64 15736.16,7782.06 15745.45,7784.52 15754.71,7787.01 15763.93,7789.56 15773.13,7792.16 15782.28,7794.8 15791.42,7797.49 15809.64,7803 15827.83,7808.7 15845.98,7814.59 15864.09,7820.67 15882.17,7826.94 15900.21,7833.41 15918.21,7840.07 15936.15,7846.93 15954.06,7853.99 15971.92,7861.26 15989.73,7868.73 16007.48,7876.4 16025.17,7884.28 16042.82,7892.38 16060.41,7900.67 16077.93,7909.2 16095.49,7917.93 16113.18,7926.87 16130.98,7936.03 16148.92,7945.4 16166.99,7954.97 16185.2,7964.76 16203.54,7974.75 16222.01,7984.93 16240.62,7995.32 16259.37,8005.91 16278.27,8016.68 16297.31,8027.67 16316.49,8038.83 16335.83,8050.2 16355.32,8061.74 16374.95,8073.48 16385.28,8079.76 16395.58,8085.77 16405.83,8091.52 16416.05,8097.01 16426.22,8102.24 16436.35,8107.21 16446.45,8111.92 16456.5,8116.36 16466.52,8120.54 16476.48,8124.46 16486.42,8128.11 16496.31,8131.51 16506.16,8134.65 16515.96,8137.52 16525.73,8140.13 16535.46,8142.47 16545.14,8144.57 16554.77,8146.4 16564.38,8147.95 16573.93,8149.25 16583.44,8150.3 16592.9,8151.07 16602.33,8151.59 16611.71,8151.84 16621.04,8151.83 16630.32,8151.56 16639.57,8151.03 16648.78,8150.24 16657.93,8149.19 16667.04,8147.87 16676.1,8146.29 16685.12,8144.45 16702.89,8140.09 16720.24,8134.9 16737.15,8128.88 16753.65,8122.02 16769.71,8114.34 16785.36,8105.83 16800.59,8096.47 16815.4,8086.29 16829.79,8075.29 16843.76,8063.44 16857.33,8050.76 16870.49,8037.26 16883.24,8022.92 16895.59,8007.75 16907.52,7991.74 16919.06,7974.91 "/>
   <polygon class="fil48" points="17266.02,11870.36 16657.97,13117.82 16630.32,13137.85 16602.55,13157.54 17210.6,11910.08 17238.36,11890.39 "/>
   <polygon class="fil49" points="17210.6,11910.08 16602.55,13157.54 16574.69,13176.88 16546.71,13195.87 17154.76,11948.42 17182.73,11929.43 "/>
   <polygon class="fil50" points="17154.76,11948.42 16546.71,13195.87 16518.62,13214.52 16490.42,13232.82 17098.47,11985.36 17126.67,11967.06 "/>
   <polygon class="fil51" points="17098.47,11985.36 16490.42,13232.82 16462.12,13250.78 16433.71,13268.38 17041.75,12020.92 17070.17,12003.32 "/>
   <polygon class="fil52" points="17041.75,12020.92 16433.71,13268.38 16405.18,13285.65 16376.55,13302.56 16984.6,12055.1 17013.23,12038.19 "/>
   <polygon class="fil53" points="16984.6,12055.1 16376.55,13302.56 16347.8,13319.13 16318.94,13335.35 16926.99,12087.9 16955.84,12071.67 "/>
   <polygon class="fil54" points="16926.99,12087.9 16318.94,13335.35 16289.98,13351.22 16260.9,13366.75 16868.95,12119.29 16898.03,12103.77 "/>
   <polygon class="fil55" points="16868.95,12119.29 16260.9,13366.75 16231.71,13381.93 16202.41,13396.77 16810.46,12149.31 16839.76,12134.48 "/>
   <polygon class="fil56" points="16810.46,12149.31 16202.41,13396.77 16173.01,13411.26 16143.48,13425.41 16751.53,12177.95 16781.06,12163.8 "/>
   <polygon class="fil57" points="16751.53,12177.95 16143.48,13425.41 16113.85,13439.2 16084.1,13452.65 16692.15,12205.19 16721.9,12191.74 "/>
   <polygon class="fil58" points="16692.15,12205.19 16084.1,13452.65 16054.24,13465.75 16024.27,13478.5 16632.32,12231.05 16662.29,12218.3 "/>
   <polygon class="fil59" points="16632.32,12231.05 16024.27,13478.5 15994.19,13490.92 15963.98,13502.98 16572.03,12255.52 16602.23,12243.46 "/>
   <polygon class="fil60" points="16572.03,12255.52 15963.98,13502.98 15933.67,13514.7 15903.24,13526.07 16511.29,12278.61 16541.72,12267.24 "/>
   <polygon class="fil61" points="16511.29,12278.61 15903.24,13526.07 15872.7,13537.09 15842.05,13547.77 16450.1,12300.31 16480.75,12289.63 "/>
   <polygon class="fil62" points="16450.1,12300.31 15842.05,13547.77 15811.28,13558.1 15780.39,13568.08 16388.44,12320.63 16419.32,12310.64 "/>
   <polygon class="fil63" points="16388.44,12320.63 15780.39,13568.08 15749.4,13577.71 15718.28,13587.01 16326.33,12339.55 16357.45,12330.26 "/>
   <polygon class="fil64" points="16326.33,12339.55 15718.28,13587.01 15687.06,13595.99 15655.75,13604.68 16263.8,12357.22 16295.11,12348.53 "/>
   <polygon class="fil65" points="16263.8,12357.22 15655.75,13604.68 15624.35,13613.08 15592.85,13621.2 16200.9,12373.74 16232.4,12365.62 "/>
   <polygon class="fil66" points="16200.9,12373.74 15592.85,13621.2 15561.27,13629.03 15529.59,13636.58 16137.63,12389.13 16169.32,12381.58 "/>
   <polygon class="fil67" points="16137.63,12389.13 15529.59,13636.58 15497.83,13643.85 15465.96,13650.83 16074.01,12403.38 16105.88,12396.39 "/>
   <polygon class="fil68" points="16074.01,12403.38 15465.96,13650.83 15434.01,13657.52 15401.97,13663.94 16010.02,12416.48 16042.06,12410.07 "/>
   <polygon class="fil69" points="16010.02,12416.48 15401.97,13663.94 15369.85,13670.07 15337.62,13675.91 15945.67,12428.45 15977.9,12422.61 "/>
   <polygon class="fil70" points="15945.67,12428.45 15337.62,13675.91 15305.31,13681.46 15272.92,13686.73 15880.97,12439.27 15913.36,12434 "/>
   <polygon class="fil71" points="15880.97,12439.27 15272.92,13686.73 15240.43,13691.71 15207.86,13696.42 15815.91,12448.96 15848.47,12444.26 "/>
   <polygon class="fil72" points="15815.91,12448.96 15207.86,13696.42 15175.19,13700.83 15142.44,13704.97 15750.49,12457.51 15783.24,12453.37 "/>
   <polygon class="fil73" points="15750.49,12457.51 15142.44,13704.97 15109.6,13708.81 15076.66,13712.37 15684.71,12464.91 15717.65,12461.36 "/>
   <polygon class="fil74" points="15684.71,12464.91 15076.66,13712.37 15043.65,13715.65 15010.55,13718.64 15618.6,12471.18 15651.7,12468.19 "/>
   <polygon class="fil75" points="15618.6,12471.18 15010.55,13718.64 14977.35,13721.35 14944.08,13723.77 15552.12,12476.31 15585.4,12473.89 "/>
   <polygon class="fil76" points="15552.12,12476.31 14944.08,13723.77 14910.72,13725.91 14877.26,13727.76 15485.31,12480.3 15518.76,12478.46 "/>
   <polygon class="fil77" points="15485.31,12480.3 14877.26,13727.76 14843.72,13729.33 14810.1,13730.61 15418.15,12483.15 15451.77,12481.87 "/>
   <polygon class="fil78" points="15418.15,12483.15 14810.1,13730.61 14776.39,13731.6 14742.59,13732.32 15350.64,12484.86 15384.44,12484.15 "/>
   <polygon class="fil79" points="15350.64,12484.86 14742.59,13732.32 14708.72,13732.75 14674.75,13732.89 15282.8,12485.43 15316.77,12485.29 "/>
   <polygon class="fil80" points="15282.8,12485.43 14674.75,13732.89 14630.52,13732.66 14586.55,13732.01 15194.6,12484.56 15238.57,12485.21 "/>
   <polygon class="fil81" points="15194.6,12484.56 14586.55,13732.01 14542.83,13730.91 14499.36,13729.38 15107.41,12481.92 15150.88,12483.46 "/>
   <polygon class="fil82" points="15107.41,12481.92 14499.36,13729.38 14456.15,13727.4 14413.18,13725 15021.23,12477.54 15064.19,12479.95 "/>
   <polygon class="fil83" points="15021.23,12477.54 14413.18,13725 14370.48,13722.15 14328.02,13718.86 14936.07,12471.4 14978.53,12474.69 "/>
   <polygon class="fil84" points="14936.07,12471.4 14328.02,13718.86 14285.81,13715.14 14243.86,13710.98 14851.91,12463.53 14893.86,12467.68 "/>
   <polygon class="fil85" points="14851.91,12463.53 14243.86,13710.98 14202.16,13706.39 14160.71,13701.35 14768.76,12453.9 14810.21,12458.93 "/>
   <polygon class="fil86" points="14768.76,12453.9 14160.71,13701.35 14119.51,13695.88 14078.56,13689.98 14686.61,12442.52 14727.56,12448.43 "/>
   <polygon class="fil87" points="14686.61,12442.52 14078.56,13689.98 14037.87,13683.65 13997.42,13676.87 14605.47,12429.41 14645.92,12436.19 "/>
   <polygon class="fil88" points="14605.47,12429.41 13997.42,13676.87 13957.22,13669.66 13917.28,13662.01 14525.33,12414.55 14565.27,12422.2 "/>
   <polygon class="fil89" points="14525.33,12414.55 13917.28,13662.01 13877.58,13653.94 13838.14,13645.42 14446.19,12397.97 14485.63,12406.48 "/>
   <polygon class="fil90" points="14446.19,12397.97 13838.14,13645.42 13798.94,13636.47 13759.99,13627.09 14368.04,12379.64 14406.99,12389.02 "/>
   <polygon class="fil91" points="14368.04,12379.64 13759.99,13627.09 13721.29,13617.28 13682.85,13607.02 14290.89,12359.57 14329.34,12369.82 "/>
   <polygon class="fil92" points="14290.89,12359.57 13682.85,13607.02 13644.64,13596.35 13606.69,13585.23 14214.74,12337.77 14252.69,12348.89 "/>
   <polygon class="fil93" points="14214.74,12337.77 13606.69,13585.23 13568.98,13573.68 13531.52,13561.7 14139.57,12314.25 14177.03,12326.22 "/>
   <polygon class="fil94" points="14139.57,12314.25 13531.52,13561.7 13494.31,13549.29 13457.34,13536.44 14065.39,12288.99 14102.36,12301.83 "/>
   <polygon class="fil95" points="14065.39,12288.99 13457.34,13536.44 13420.63,13523.17 13384.16,13509.46 13992.21,12262.01 14028.68,12275.72 "/>
   <polygon class="fil96" points="13992.21,12262.01 13384.16,13509.46 13347.97,13495.37 13312.11,13480.95 13920.16,12233.5 13956.02,12247.92 "/>
   <polygon class="fil97" points="13920.16,12233.5 13312.11,13480.95 13276.58,13466.2 13241.36,13451.12 13849.41,12203.67 13884.62,12218.75 "/>
   <polygon class="fil98" points="13849.41,12203.67 13241.36,13451.12 13206.47,13435.71 13171.91,13419.97 13779.96,12172.51 13814.52,12188.25 "/>
   <polygon class="fil99" points="13779.96,12172.51 13171.91,13419.97 13137.66,13403.89 13103.75,13387.48 13711.8,12140.03 13745.71,12156.44 "/>
   <polygon class="fil100" points="13711.8,12140.03 13103.75,13387.48 13070.16,13370.75 13036.9,13353.68 13644.95,12106.23 13678.21,12123.29 "/>
   <polygon class="fil101" points="13644.95,12106.23 13036.9,13353.68 13003.96,13336.29 12971.35,13318.55 13579.4,12071.1 13612.01,12088.83 "/>
   <polygon class="fil102" points="13579.4,12071.1 12971.35,13318.55 12939.06,13300.49 12907.11,13282.1 13515.15,12034.64 13547.11,12053.04 "/>
   <polygon class="fil103" points="13515.15,12034.64 12907.11,13282.1 12875.48,13263.37 12844.16,13244.31 13452.21,11996.86 13483.52,12015.91 "/>
   <polygon class="fil104" points="13452.21,11996.86 12844.16,13244.31 12813.19,13224.93 12782.54,13205.22 13390.58,11957.76 13421.24,11977.48 "/>
   <polygon class="fil105" points="13390.58,11957.76 12782.54,13205.22 12752.21,13185.16 12722.22,13164.78 13330.27,11917.33 13360.26,11937.71 "/>
   <polygon class="fil106" points="13330.27,11917.33 12722.22,13164.78 12692.56,13144.07 12663.22,13123.03 13271.27,11875.58 13300.61,11896.62 "/>
   <polygon class="fil107" points="13271.27,11875.58 12663.22,13123.03 12634.21,13101.66 12605.52,13079.96 13213.57,11832.5 13242.26,11854.2 "/>
   <polygon class="fil108" points="13213.57,11832.5 12605.52,13079.96 12577.17,13057.92 12549.16,13035.55 13157.2,11788.09 13185.22,11810.46 "/>
   <polygon class="fil109" points="13157.2,11788.09 12549.16,13035.55 12521.46,13012.85 12494.1,12989.82 13102.15,11742.36 13129.51,11765.4 "/>
   <polygon class="fil110" points="13102.15,11742.36 12494.1,12989.82 12467.06,12966.46 12440.36,12942.77 13048.41,11695.31 13075.11,11719 "/>
   <polygon class="fil111" points="13048.41,11695.31 12440.36,12942.77 12414,12918.75 12387.96,12894.39 12996,11646.94 13022.04,11671.29 "/>
   <polygon class="fil112" points="12996,11646.94 12387.96,12894.39 12362.27,12869.73 12336.94,12844.79 12944.99,11597.33 12970.32,11622.27 "/>
   <polygon class="fil113" points="12944.99,11597.33 12336.94,12844.79 12311.99,12819.56 12287.41,12794.04 12895.46,11546.58 12920.04,11572.1 "/>
   <polygon class="fil114" points="12895.46,11546.58 12287.41,12794.04 12263.21,12768.24 12239.37,12742.15 12847.41,11494.7 12871.26,11520.78 "/>
   <polygon class="fil115" points="12847.41,11494.7 12239.37,12742.15 12215.9,12715.78 12192.79,12689.12 12800.84,11441.66 12823.94,11468.32 "/>
   <polygon class="fil116" points="12800.84,11441.66 12192.79,12689.12 12170.05,12662.18 12147.69,12634.95 12755.74,11387.5 12778.1,11414.73 "/>
   <polygon class="fil117" points="12755.74,11387.5 12147.69,12634.95 12125.7,12607.45 12104.08,12579.65 12712.12,11332.19 12733.75,11359.99 "/>
   <polygon class="fil118" points="12712.12,11332.19 12104.08,12579.65 12082.82,12551.57 12061.94,12523.21 12669.99,11275.75 12690.87,11304.11 "/>
   <polygon class="fil119" points="12669.99,11275.75 12061.94,12523.21 12041.42,12494.56 12021.28,12465.62 12629.33,11218.17 12649.47,11247.1 "/>
   <polygon class="fil120" points="12629.33,11218.17 12021.28,12465.62 12001.51,12436.4 11982.1,12406.89 12590.14,11159.43 12609.55,11188.94 "/>
   <polygon class="fil121" points="12590.14,11159.43 11982.1,12406.89 11963.06,12377.1 11944.39,12347.03 12552.44,11099.57 12571.11,11129.65 "/>
   <polygon class="fil122" points="12552.44,11099.57 11944.39,12347.03 11926.1,12316.67 11908.17,12286.03 12516.22,11038.57 12534.15,11069.21 "/>
   <polygon class="fil123" points="12516.22,11038.57 11908.17,12286.03 11890.62,12255.1 11873.42,12223.88 12481.47,10976.42 12498.67,11007.64 "/>
   <polygon class="fil124" points="12481.47,10976.42 11873.42,12223.88 11856.6,12192.38 11840.16,12160.6 12448.2,10913.14 12464.65,10944.92 "/>
   <polygon class="fil125" points="12448.2,10913.14 11840.16,12160.6 11824.08,12128.52 11808.37,12096.17 12416.42,10848.71 12432.13,10881.07 "/>
   <polygon class="fil126" points="12416.42,10848.71 11808.37,12096.17 11793.03,12063.53 11778.06,12030.61 12386.11,10783.15 12401.08,10816.08 "/>
   <polygon class="fil127" points="12386.11,10783.15 11778.06,12030.61 11763.46,11997.4 11749.23,11963.91 12357.28,10716.45 12371.51,10749.94 "/>
   <polygon class="fil128" points="12357.28,10716.45 11749.23,11963.91 11735.4,11930.18 11722.01,11896.28 12330.06,10648.82 12343.45,10682.73 "/>
   <polygon class="fil129" points="12330.06,10648.82 11722.01,11896.28 11709.07,11862.19 11696.55,11827.94 12304.6,10580.48 12317.12,10614.74 "/>
   <polygon class="fil130" points="12304.6,10580.48 11696.55,11827.94 11684.48,11793.5 11672.85,11758.89 12280.9,10511.43 12292.53,10546.05 "/>
   <polygon class="fil131" points="12280.9,10511.43 11672.85,11758.89 11661.66,11724.09 11650.9,11689.12 12258.95,10441.66 12269.71,10476.63 "/>
   <polygon class="fil132" points="12258.95,10441.66 11650.9,11689.12 11640.58,11653.97 11630.71,11618.64 12238.76,10371.18 12248.63,10406.51 "/>
   <polygon class="fil133" points="12238.76,10371.18 11630.71,11618.64 11621.28,11583.13 11612.28,11547.44 12220.33,10299.98 12229.33,10335.67 "/>
   <polygon class="fil134" points="12220.33,10299.98 11612.28,11547.44 11603.72,11511.57 11595.6,11475.52 12203.65,10228.06 12211.77,10264.12 "/>
   <polygon class="fil135" points="12203.65,10228.06 11595.6,11475.52 11587.92,11439.29 11580.67,11402.88 12188.72,10155.43 12195.96,10191.83 "/>
   <polygon class="fil136" points="12188.72,10155.43 11580.67,11402.88 11573.87,11366.29 11567.51,11329.51 12175.56,10082.05 12181.92,10118.83 "/>
   <polygon class="fil137" points="12175.56,10082.05 11567.51,11329.51 11561.58,11292.56 11556.09,11255.42 12164.14,10007.96 12169.63,10045.11 "/>
   <polygon class="fil138" points="12164.14,10007.96 11556.09,11255.42 11551.04,11218.11 11546.43,11180.6 12154.48,9933.15 12159.09,9970.65 "/>
   <polygon class="fil139" points="12154.48,9933.15 11546.43,11180.6 11542.27,11142.92 11538.53,11105.06 12146.58,9857.6 12150.32,9895.46 "/>
   <polygon class="fil140" points="12146.58,9857.6 11538.53,11105.06 11535.25,11067.01 11532.39,11028.77 12140.44,9781.32 12143.3,9819.55 "/>
   <polygon class="fil141" points="12140.44,9781.32 11532.39,11028.77 11529.98,10990.36 11528,10951.77 12136.05,9704.31 12138.02,9742.91 "/>
   <polygon class="fil142" points="12136.05,9704.31 11528,10951.77 11526.46,10912.99 11525.37,10874.02 12133.41,9626.56 12134.51,9665.53 "/>
   <polygon class="fil143" points="12133.41,9626.56 11525.37,10874.02 11524.71,10834.86 11524.49,10795.53 12132.54,9548.08 12132.76,9587.41 "/>
   <polygon class="fil144" points="12132.54,9548.08 11524.49,10795.53 11524.69,10755.46 11525.32,10715.6 12133.37,9468.15 12132.74,9508.01 "/>
   <polygon class="fil145" points="12133.37,9468.15 11525.32,10715.6 11526.36,10675.94 11527.81,10636.46 12135.86,9389.01 12134.41,9428.48 "/>
   <polygon class="fil146" points="12135.86,9389.01 11527.81,10636.46 11529.69,10597.21 11531.98,10558.15 12140.03,9310.69 12137.74,9349.75 "/>
   <polygon class="fil147" points="12140.03,9310.69 11531.98,10558.15 11534.68,10519.28 11537.8,10480.62 12145.85,9233.16 12142.73,9271.82 "/>
   <polygon class="fil148" points="12145.85,9233.16 11537.8,10480.62 11541.33,10442.16 11545.28,10403.91 12153.33,9156.46 12149.38,9194.71 "/>
   <polygon class="fil149" points="12153.33,9156.46 11545.28,10403.91 11549.65,10365.87 11554.43,10328.02 12162.48,9080.56 12157.69,9118.41 "/>
   <polygon class="fil150" points="12162.48,9080.56 11554.43,10328.02 11559.63,10290.37 11565.25,10252.93 12173.29,9005.47 12167.68,9042.91 "/>
   <polygon class="fil151" points="12173.29,9005.47 11565.25,10252.93 11571.27,10215.68 11577.72,10178.65 12185.77,8931.2 12179.32,8968.23 "/>
   <polygon class="fil152" points="12185.77,8931.2 11577.72,10178.65 11584.58,10141.82 11591.86,10105.2 12199.9,8857.74 12192.63,8894.36 "/>
   <polygon class="fil153" points="12199.9,8857.74 11591.86,10105.2 11599.55,10068.77 11607.66,10032.56 12215.71,8785.1 12207.6,8821.32 "/>
   <polygon class="fil154" points="12215.71,8785.1 11607.66,10032.56 11616.18,9996.54 11625.12,9960.73 12233.17,8713.28 12224.23,8749.09 "/>
   <polygon class="fil155" points="12233.17,8713.28 11625.12,9960.73 11634.48,9925.14 11644.25,9889.75 12252.3,8642.29 12242.53,8677.68 "/>
   <polygon class="fil156" points="12252.3,8642.29 11644.25,9889.75 11654.44,9854.55 11665.04,9819.57 12273.09,8572.11 12262.49,8607.09 "/>
   <polygon class="fil157" points="12273.09,8572.11 11665.04,9819.57 11676.06,9784.79 11687.5,9750.22 12295.55,8502.76 12284.11,8537.33 "/>
   <polygon class="fil158" points="12295.55,8502.76 11687.5,9750.22 11699.35,9715.86 11711.62,9681.71 12319.67,8434.25 12307.4,8468.4 "/>
   <polygon class="fil159" points="12319.67,8434.25 11711.62,9681.71 11724.3,9647.76 11737.4,9614.02 12345.45,8366.56 12332.35,8400.3 "/>
   <polygon class="fil160" points="12345.45,8366.56 11737.4,9614.02 11750.89,9580.52 11764.73,9547.33 12372.78,8299.87 12358.93,8333.07 "/>
   <polygon class="fil1" points="17266.02,11870.36 16657.97,13117.82 16630.32,13137.85 16602.55,13157.54 16574.69,13176.88 16546.71,13195.87 16518.62,13214.52 16490.42,13232.82 16462.12,13250.78 16433.71,13268.38 16405.18,13285.65 16376.55,13302.56 16347.8,13319.13 16318.94,13335.35 16289.98,13351.22 16260.9,13366.75 16231.71,13381.93 16202.41,13396.77 16173.01,13411.26 16143.48,13425.41 16113.85,13439.2 16084.1,13452.65 16054.24,13465.75 16024.27,13478.5 15994.19,13490.92 15963.98,13502.98 15933.67,13514.7 15903.24,13526.07 15872.7,13537.09 15842.05,13547.77 15811.28,13558.1 15780.39,13568.08 15749.4,13577.71 15718.28,13587.01 15687.06,13595.99 15655.75,13604.68 15624.35,13613.08 15592.85,13621.2 15561.27,13629.03 15529.59,13636.58 15497.83,13643.85 15465.96,13650.83 15434.01,13657.52 15401.97,13663.94 15369.85,13670.07 15337.62,13675.91 15305.31,13681.46 15272.92,13686.73 15240.43,13691.71 15207.86,13696.42 15175.19,13700.83 15142.44,13704.97 15109.6,13708.81 15076.66,13712.37 15043.65,13715.65 15010.55,13718.64 14977.35,13721.35 14944.08,13723.77 14910.72,13725.91 14877.26,13727.76 14843.72,13729.33 14810.1,13730.61 14776.39,13731.6 14742.59,13732.32 14708.72,13732.75 14674.75,13732.89 14630.52,13732.66 14586.55,13732.01 14542.83,13730.91 14499.36,13729.38 14456.15,13727.4 14413.18,13725 14370.48,13722.15 14328.02,13718.86 14285.81,13715.14 14243.86,13710.98 14202.16,13706.39 14160.71,13701.35 14119.51,13695.88 14078.56,13689.98 14037.87,13683.65 13997.42,13676.87 13957.22,13669.66 13917.28,13662.01 13877.58,13653.94 13838.14,13645.42 13798.94,13636.47 13759.99,13627.09 13721.29,13617.28 13682.85,13607.02 13644.64,13596.35 13606.69,13585.23 13568.98,13573.68 13531.52,13561.7 13494.31,13549.29 13457.34,13536.44 13420.63,13523.17 13384.16,13509.46 13347.97,13495.37 13312.11,13480.95 13276.58,13466.2 13241.36,13451.12 13206.47,13435.71 13171.91,13419.97 13137.66,13403.89 13103.75,13387.48 13070.16,13370.75 13036.9,13353.68 13003.96,13336.29 12971.35,13318.55 12939.06,13300.49 12907.11,13282.1 12875.48,13263.37 12844.16,13244.31 12813.19,13224.93 12782.54,13205.22 12752.21,13185.16 12722.22,13164.78 12692.56,13144.07 12663.22,13123.03 12634.21,13101.66 12605.52,13079.96 12577.17,13057.92 12549.16,13035.55 12521.46,13012.85 12494.1,12989.82 12467.06,12966.46 12440.36,12942.77 12414,12918.75 12387.96,12894.39 12362.27,12869.73 12336.94,12844.79 12311.99,12819.56 12287.41,12794.04 12263.21,12768.24 12239.37,12742.15 12215.9,12715.78 12192.79,12689.12 12170.05,12662.18 12147.69,12634.95 12125.7,12607.45 12104.08,12579.65 12082.82,12551.57 12061.94,12523.21 12041.42,12494.56 12021.28,12465.62 12001.51,12436.4 11982.1,12406.89 11963.06,12377.1 11944.39,12347.03 11926.1,12316.67 11908.17,12286.03 11890.62,12255.1 11873.42,12223.88 11856.6,12192.38 11840.16,12160.6 11824.08,12128.52 11808.37,12096.17 11793.03,12063.53 11778.06,12030.61 11763.46,11997.4 11749.23,11963.91 11735.4,11930.18 11722.01,11896.28 11709.07,11862.19 11696.55,11827.94 11684.48,11793.5 11672.85,11758.89 11661.66,11724.09 11650.9,11689.12 11640.58,11653.97 11630.71,11618.64 11621.28,11583.13 11612.28,11547.44 11603.72,11511.57 11595.6,11475.52 11587.92,11439.29 11580.67,11402.88 11573.87,11366.29 11567.51,11329.51 11561.58,11292.56 11556.09,11255.42 11551.04,11218.11 11546.43,11180.6 11542.27,11142.92 11538.53,11105.06 11535.25,11067.01 11532.39,11028.77 11529.98,10990.36 11528,10951.77 11526.46,10912.99 11525.37,10874.02 11524.71,10834.86 11524.49,10795.53 11524.69,10755.46 11525.32,10715.6 11526.36,10675.94 11527.81,10636.46 11529.69,10597.21 11531.98,10558.15 11534.68,10519.28 11537.8,10480.62 11541.33,10442.16 11545.28,10403.91 11549.65,10365.87 11554.43,10328.02 11559.63,10290.37 11565.25,10252.93 11571.27,10215.68 11577.72,10178.65 11584.58,10141.82 11591.86,10105.2 11599.55,10068.77 11607.66,10032.56 11616.18,9996.54 11625.12,9960.73 11634.48,9925.14 11644.25,9889.75 11654.44,9854.55 11665.04,9819.57 11676.06,9784.79 11687.5,9750.22 11699.35,9715.86 11711.62,9681.71 11724.3,9647.76 11737.4,9614.02 11750.89,9580.52 11764.73,9547.33 12372.78,8299.87 12358.93,8333.07 12345.45,8366.56 12332.35,8400.3 12319.67,8434.25 12307.4,8468.4 12295.55,8502.76 12284.11,8537.33 12273.09,8572.11 12262.49,8607.09 12252.3,8642.29 12242.53,8677.68 12233.17,8713.28 12224.23,8749.09 12215.71,8785.1 12207.6,8821.32 12199.9,8857.74 12192.63,8894.36 12185.77,8931.2 12179.32,8968.23 12173.29,9005.47 12167.68,9042.91 12162.48,9080.56 12157.69,9118.41 12153.33,9156.46 12149.38,9194.71 12145.85,9233.16 12142.73,9271.82 12140.03,9310.69 12137.74,9349.75 12135.86,9389.01 12134.41,9428.48 12133.37,9468.15 12132.74,9508.01 12132.54,9548.08 12132.76,9587.41 12133.41,9626.56 12134.51,9665.53 12136.05,9704.31 12138.02,9742.91 12140.44,9781.32 12143.3,9819.55 12146.58,9857.6 12150.32,9895.46 12154.48,9933.15 12159.09,9970.65 12164.14,10007.96 12169.63,10045.11 12175.56,10082.05 12181.92,10118.83 12188.72,10155.43 12195.96,10191.83 12203.65,10228.06 12211.77,10264.12 12220.33,10299.98 12229.33,10335.67 12238.76,10371.18 12248.63,10406.51 12258.95,10441.66 12269.71,10476.63 12280.9,10511.43 12292.53,10546.05 12304.6,10580.48 12317.12,10614.74 12330.06,10648.82 12343.45,10682.73 12357.28,10716.45 12371.51,10749.94 12386.11,10783.15 12401.08,10816.08 12416.42,10848.71 12432.13,10881.07 12448.2,10913.14 12464.65,10944.92 12481.47,10976.42 12498.67,11007.64 12516.22,11038.57 12534.15,11069.21 12552.44,11099.57 12571.11,11129.65 12590.14,11159.43 12609.55,11188.94 12629.33,11218.17 12649.47,11247.1 12669.99,11275.75 12690.87,11304.11 12712.12,11332.19 12733.75,11359.99 12755.74,11387.5 12778.1,11414.73 12800.84,11441.66 12823.94,11468.32 12847.41,11494.7 12871.26,11520.78 12895.46,11546.58 12920.04,11572.1 12944.99,11597.33 12970.32,11622.27 12996,11646.94 13022.04,11671.29 13048.41,11695.31 13075.11,11719 13102.15,11742.36 13129.51,11765.4 13157.2,11788.09 13185.22,11810.46 13213.57,11832.5 13242.26,11854.2 13271.27,11875.58 13300.61,11896.62 13330.27,11917.33 13360.26,11937.71 13390.58,11957.76 13421.24,11977.48 13452.21,11996.86 13483.52,12015.91 13515.15,12034.64 13547.11,12053.04 13579.4,12071.1 13612.01,12088.83 13644.95,12106.23 13678.21,12123.29 13711.8,12140.03 13745.71,12156.44 13779.96,12172.51 13814.52,12188.25 13849.41,12203.67 13884.62,12218.75 13920.16,12233.5 13956.02,12247.92 13992.21,12262.01 14028.68,12275.72 14065.39,12288.99 14102.36,12301.83 14139.57,12314.25 14177.03,12326.22 14214.74,12337.77 14252.69,12348.89 14290.89,12359.57 14329.34,12369.82 14368.04,12379.64 14406.99,12389.02 14446.19,12397.97 14485.63,12406.48 14525.33,12414.55 14565.27,12422.2 14605.47,12429.41 14645.92,12436.19 14686.61,12442.52 14727.56,12448.43 14768.76,12453.9 14810.21,12458.93 14851.91,12463.53 14893.86,12467.68 14936.07,12471.4 14978.53,12474.69 15021.23,12477.54 15064.19,12479.95 15107.41,12481.92 15150.88,12483.46 15194.6,12484.56 15238.57,12485.21 15282.8,12485.43 15316.77,12485.29 15350.64,12484.86 15384.44,12484.15 15418.15,12483.15 15451.77,12481.87 15485.31,12480.3 15518.76,12478.46 15552.12,12476.31 15585.4,12473.89 15618.6,12471.18 15651.7,12468.19 15684.71,12464.91 15717.65,12461.36 15750.49,12457.51 15783.24,12453.37 15815.91,12448.96 15848.47,12444.26 15880.97,12439.27 15913.36,12434 15945.67,12428.45 15977.9,12422.61 16010.02,12416.48 16042.06,12410.07 16074.01,12403.38 16105.88,12396.39 16137.63,12389.13 16169.32,12381.58 16200.9,12373.74 16232.4,12365.62 16263.8,12357.22 16295.11,12348.53 16326.33,12339.55 16357.45,12330.26 16388.44,12320.63 16419.32,12310.64 16450.1,12300.31 16480.75,12289.63 16511.29,12278.61 16541.72,12267.24 16572.03,12255.52 16602.23,12243.46 16632.32,12231.05 16662.29,12218.3 16692.15,12205.19 16721.9,12191.74 16751.53,12177.95 16781.06,12163.8 16810.46,12149.31 16839.76,12134.48 16868.95,12119.29 16898.03,12103.77 16926.99,12087.9 16955.84,12071.67 16984.6,12055.1 17013.23,12038.19 17041.75,12020.92 17070.17,12003.32 17098.47,11985.36 17126.67,11967.06 17154.76,11948.42 17182.73,11929.43 17210.6,11910.08 17238.36,11890.39 "/>
   <polygon class="fil161" points="16059.53,10415.48 15451.48,11662.94 14883.72,11662.94 15491.77,10415.48 "/>
   <polygon class="fil162" points="15491.77,10415.48 14883.72,11662.94 14868.17,11662.68 14853.05,11661.89 14838.35,11660.58 14824.09,11658.75 14810.26,11656.39 14796.86,11653.51 15404.9,10406.06 15418.31,10408.93 15432.14,10411.29 15446.4,10413.12 15461.09,10414.44 15476.22,10415.22 "/>
   <polygon class="fil163" points="15404.9,10406.06 14796.86,11653.51 14783.89,11650.11 14771.36,11646.18 14759.25,11641.73 14747.58,11636.76 14736.33,11631.26 14725.51,11625.24 14715.14,11618.69 15323.19,10371.23 15333.56,10377.78 15344.38,10383.8 15355.63,10389.3 15367.3,10394.27 15379.4,10398.73 15391.94,10402.66 "/>
   <polygon class="fil164" points="15323.19,10371.23 14715.14,11618.69 14705.19,11611.62 14695.67,11604.03 14686.58,11595.92 14677.99,11587.39 14669.95,11578.6 14662.46,11569.53 14655.53,11560.18 15263.58,10312.72 15270.51,10322.07 15278,10331.15 15286.04,10339.94 15294.63,10348.46 15303.72,10356.57 15313.24,10364.16 "/>
   <polygon class="fil165" points="15263.58,10312.72 14655.53,11560.18 14649.16,11550.56 14643.34,11540.65 14638.07,11530.47 14633.36,11520.01 14629.2,11509.28 14625.6,11498.26 14622.54,11486.97 14620.05,11475.41 15228.1,10227.95 15230.59,10239.52 15233.65,10250.81 15237.25,10261.82 15241.4,10272.55 15246.12,10283.01 15251.39,10293.19 15257.21,10303.1 "/>
   <polygon class="fil166" points="15228.1,10227.95 14620.05,11475.41 14618.11,11463.57 14616.72,11451.44 14615.89,11439.05 14615.61,11426.37 15223.66,10178.91 15223.94,10191.59 15224.77,10203.99 15226.16,10216.11 "/>
   <polygon class="fil167" points="15223.66,10178.91 14615.61,11426.37 14615.61,10693.02 15223.66,9445.56 "/>
   <polygon class="fil1" points="16059.53,10415.48 15451.48,11662.94 14883.72,11662.94 14868.17,11662.68 14853.05,11661.89 14838.35,11660.58 14824.09,11658.75 14810.26,11656.39 14796.86,11653.51 14783.89,11650.11 14771.36,11646.18 14759.25,11641.73 14747.58,11636.76 14736.33,11631.26 14725.51,11625.24 14715.14,11618.69 14705.19,11611.62 14695.67,11604.03 14686.58,11595.92 14677.99,11587.39 14669.95,11578.6 14662.46,11569.53 14655.53,11560.18 14649.16,11550.56 14643.34,11540.65 14638.07,11530.47 14633.36,11520.01 14629.2,11509.28 14625.6,11498.26 14622.54,11486.97 14620.05,11475.41 14618.11,11463.57 14616.72,11451.44 14615.89,11439.05 14615.61,11426.37 14615.61,10693.02 15223.66,9445.56 15223.66,10178.91 15223.94,10191.59 15224.77,10203.99 15226.16,10216.11 15228.1,10227.95 15230.59,10239.52 15233.65,10250.81 15237.25,10261.82 15241.4,10272.55 15246.12,10283.01 15251.39,10293.19 15257.21,10303.1 15263.58,10312.72 15270.51,10322.07 15278,10331.15 15286.04,10339.94 15294.63,10348.46 15303.72,10356.57 15313.24,10364.16 15323.19,10371.23 15333.56,10377.78 15344.38,10383.8 15355.63,10389.3 15367.3,10394.27 15379.4,10398.73 15391.94,10402.66 15404.9,10406.06 15418.31,10408.93 15432.14,10411.29 15446.4,10413.12 15461.09,10414.44 15476.22,10415.22 15491.77,10415.48 "/>
  </g>
  <path class="fil168" d="M15223.66 9445.56l2042.36 0 0 2424.8c-294.4,215.55 -607.19,371.94 -939.69,469.19 -332.51,97.25 -680.79,145.88 -1043.53,145.88 -473.13,0 -902.89,-74.91 -1290.59,-223.42 -387.7,-148.51 -720.22,-353.53 -996.21,-615.07 -275.99,-261.54 -488.9,-571.7 -638.72,-930.49 -149.83,-358.8 -224.74,-747.82 -224.74,-1168.37 0,-428.45 70.97,-822.73 212.91,-1181.52 141.94,-358.79 345.64,-667.65 609.82,-927.87 264.16,-260.22 583.52,-462.62 958.09,-607.18 374.55,-144.57 792.49,-216.85 1255.11,-216.85 239.19,0 463.93,19.71 674.21,59.14 210.28,39.43 404.79,93.31 582.21,161.65 177.43,68.34 339.09,149.83 486.28,244.45 147.2,94.63 278.62,197.14 394.28,307.54l-386.39 587.47c-60.46,92 -138,148.51 -233.94,169.54 -95.94,21.03 -199.77,-2.63 -310.17,-70.97 -105.14,-63.08 -203.7,-118.28 -297.02,-164.28 -93.31,-46 -189.25,-82.8 -286.51,-111.71 -97.25,-28.92 -199.76,-49.94 -307.54,-63.09 -107.76,-13.14 -228.67,-19.71 -362.72,-19.71 -249.71,0 -474.45,43.37 -674.22,131.43 -199.76,88.05 -369.3,212.9 -509.93,373.24 -140.62,160.34 -249.7,352.22 -325.94,576.96 -76.22,224.74 -114.34,475.77 -114.34,751.76 0,304.9 42.06,575.64 126.17,812.21 84.11,236.56 203.71,436.32 357.48,599.29 153.77,162.97 337.77,286.52 551.99,371.94 214.22,85.43 450.79,128.8 711.01,128.8 160.34,0 306.22,-15.78 436.33,-47.31 130.11,-31.55 256.28,-73.61 379.82,-126.18l0 -871.35 -567.76 0c-84.11,0 -149.83,-22.34 -197.14,-67.02 -47.31,-44.69 -70.97,-101.2 -70.97,-169.55l0 -733.35z"/>
  <g id="_2704133461792">
   <g style="clip-path:url(#id0)">
    <image x="12132.54" y="6614.66" width="5172.91" height="5870.77" xlink:href="logo-header_Images\logo-header_ImgID4.png"/>
   </g>
  </g>
 </g>
</svg>
